<?xml version="1.0" encoding="UTF-8"?>
<svg id="Layer_2" data-name="Layer 2" xmlns="http://www.w3.org/2000/svg" xmlns:xlink="http://www.w3.org/1999/xlink" viewBox="0 0 178.43 178.43">
  <defs>
    <style>
      .cls-1 {
        fill: #233d6d;
      }

      .cls-2 {
        fill: #d7dde6;
      }

      .cls-3 {
        clip-path: url(#clippath);
      }
    </style>
    <clipPath id="clippath">
      <circle class="cls-2" cx="89.22" cy="89.22" r="89.22"/>
    </clipPath>
  </defs>
  <g id="Layer_2-2" data-name="Layer 2">
    <g>
      <circle class="cls-2" cx="89.22" cy="89.22" r="89.22"/>
      <g class="cls-3">
        <g>
          <path class="cls-1" d="M77.43,133.93c.39.6.46,1.34.21,2.24l-.25,1.34c2.39,4.78,6.67,8.86,11.55,11.05l.25.47.73-.02c1.69,1.02,3.64.76,5.12-.52l.56-.1-.06-.46c1.59-1.25,2.54-2.87,3.35-4.72,1.33-3.02,1.45-5.08.79-8.21-2.66,1.01-5.33,1.92-8.01,2.73-.31.04-.58.04-.89.03-.55-.02-1.95-.17-2.02-.72-.67-.18-.85-.36-.56-.55l.28-.31c1,.29,1.99.39,2.98.31,3.02-.92,5.98-1.9,8.88-2.96l.37.25c.44.05.38.19.04.44-.2.89.14,2.37.33,3.44,2.11.95,4.22,1.49,6.48,1.88l8.57,1.47c2.75.47,5.41,1.33,7.65,2.85.28.14.46.32.54.54,1.19,1.27,2.22,2.64,2.91,4.34,1.25,3.06,1.96,6.27,2.06,9.59.06,1.81.39,3.27,1.39,4.82,2.69,4.18,4.98,8.48,6.9,13.09,1.69.68,3.06,1.73,4.42,2.81.36.24.72.53.9.94,3.6,3.39,5.41,7.6,8.36,11.1.18.22.52.29.47.59.67.51,1.33,1.14,1.81,1.82.13.35.46.5.72.72.2.05.39.23.56.54,1.34,1.46,2.88,2.8,4.48,3.98.19.03.39.16.37.35.26.28.51.59.88.73.25.14.5.32.74.57,4.19,3.8,3.16,2.28,4.3,1.93.51-.15.96-.5,1.42-.74,1.79-.94,3.65-1.59,5.5-2.4.9-.39,1.79-.26,2.66.13,1.01.45,3.64,1.37,3.58,2.78-.09,1.93-3.8,3.14-5.42,3.61-.6.17-.89.84-1.22,1.29,6.76,2.95,9.39,1.19,16.37,4.62,1.18.58,2.32,1.13,3.45,1.78.39.22.61.64.61.95,0,.84-1.34,1.67-2.25,1.82-3.75.6-6.88-1.62-8.71-1.81-.73-.08-1.39-.48-2.2-.22.45.46,1.01.79,1.57,1.03.19.09.38.21.57.36.7.6,1.49,1.09,2.33,1.64,2.43,1.57,4.35,3.75,5.13,6.6.28,1.01-.63,1.87-1.64,1.95-1.88.16-3.59-.76-4.83-2.17-1.13-1.29-2.32-2.37-3.77-3.29-.22-.14-.31-.61-.71-.34,2.02,2.1,4.97,5.05,4.84,8.18-.05,1.1-.87,1.6-1.94,1.55-1.22-.06-3.46-1.28-4.1-2.26-.58-.9-1.32-1.69-1.77-2.71l-2.73-2.97c.15,1.5,1.96,7.67,1.15,8.55-1,1.09-3.65-1.4-4.05-2.28-.16-.14-.29-.32-.4-.56-.46-.83-1.24-2.56-1.34-3.55-.06-.6-.53-.89-.51-1.32.03-.48-.14-.79-.29-1.21-.26-.74-.59-1.06-1.31-1.34-2.86-1.12-5.41-2.86-7.18-5.35-1.4-1.97-.36-2.49-4.16-5.44-.62-.48-1.13-1.08-1.78-1.46-.72-.42-1.21-.94-1.88-1.42-3.21-2.31-6.69-4.06-10.02-6.18l-1.77-1.13-3.04-2-2.44-1.72c-1.43-1.01-3.57-2.88-4.56-4.3s-2.01-2.61-2.83-4c-.25-.15-.38-.33-.39-.54l-2.37-3.42c-.49-.71-.87-1.42-1.5-2.08-.94-.98-1.65-2.19-2.73-3.08-.76-.62-1.46-1.32-2.1-2.18-.85,2.34-1.12,4.68-1.6,6.97.46.36-.24,3.26-.47,3.41-.07.05-.16.06-.26.07l.13,1.15c-.87,4.44-1.3,8.99-.88,13.51l-.22.77c.33.09.55.38.65.87.44.55.56,1.02.35,1.39,2.67,5.23,5.75,10.28,9.1,15.22,2.34,3.46,4.92,6.62,7.62,9.65.18.17.32.35.41.53,2.01,2.87,4.06,5.67,5.77,8.86,2.69,5.03,4.8,10.18,6.88,15.48.78,1.98,2.53,6.55,3.4,8.18,1.05,1.97,1.94,4,1.21,6.26-.46,1.43-1.06,2.79-1.82,4.13-2.29,4.07-4.34,8.15-6.01,12.49-.12.32-.01.52-.32.85-.49.53-.57,1.42-.99,2.05-.17.26-.4.13-.6.13-.34-.22-.37-.6-.09-1.13-4.74,1.6-9.21-.23-12.98-3.13l-.23-.58-.37.15-1.85-1.79.55,6.24-.34.29c-.13-.01-.3.02-.4-.05-.28-.2-.8-7.51-.77-8.78.13-5.3,1.66-11.1,6.3-14.24-3.42-5.29-5.09-7.03-9.76-10.92l-6.61-5.5c-4.79-3.99-9.36-8.2-13.25-13.03l-2.44-3.03c-.24-.3-.65-.35-1-.21-1.39.58-2.79.78-4.27.99l-5.2.75c-2.14,2.14-3.96,4.35-5.72,6.76l-5.24,7.21c-3.11,4.27-6.42,8.16-9.88,12.14-2.09,2.41-4.11,4.64-5.96,7.24-1.4,1.96-2.52,4.05-2.86,6.47-.6,4.3-1.59,10.43-3.86,14.07-.15.24-.54.08-.7.1l-.09-.62c.69-1.25,1.27-2.56,1.72-3.91l-2.44,1.67c-.37.21-.68.35-1.02.01l-.42.49c-6.13,1.65-12.52-1.19-14.65-7.32-.75,1.13-1.76,2.96-2.08,4.31-.15.66,2.45,4.19,3.15,4.8l.04.59c-.24,0-.5-.04-.73-.02-.85-.28-1.51-.9-1.98-1.87l-.98-1.71-1.06,3.49-.42.14c-.11,0-.37.03-.52-.1-.09-.07.03-.2,0-.45l1.27-4.32c-.03-.33,0-.57.33-.72.25-1.36,1.56-3.52,2.16-5.09.48-1.24,1.41-2.19,2.08-3.32.75-1.27,2.51-3.09,3.17-4.39.07-.25.26-.43.55-.56.02-.05,0-.13,0-.18.06-.23.24-.41.53-.54.02-.04,0-.13,0-.18.11-.31.35-.55.71-.72.07-.11.11-.24.16-.36.01-.26.14-.5.39-.71.69-1.01,1.23-2.17,1.66-3.44,1.41-4.21,2.35-8.45,3.5-12.72.21-.8.42-1.51.58-2.3.18-.86.74-1.66.74-2.63,0-.35.28-.62.38-.93l1.08-3.31c.17-.52.18-1,.34-1.46.19-.56.51-1.09.7-1.66l.64-1.88c.75-2.21,1.72-4.28,2.63-6.34l.39-.72c.36-.8.91-1.48,1.25-2.4s.95-1.82,1.45-2.65l1-1.66c2.7-4.5,5.06-7.89,6.42-13.15.14-.54,1.33-3.19,1.51-4.3.3-1.86.23-3.74-.09-5.58l-.91-5.19-.49-2.81c-.4-2.27-.93-4.19-1.56-6.38l-.84-2.94c-.78-2.71-1.54-5.28-1.81-8.24-3.27,4.71-7.47,8.87-11.57,12.83-.63.82-1.64,1.3-2.11,2.24-3.05,6.17-5.04,8.05-10.09,12.66-1.88,1.72-3.7,3.33-5.38,5.27-3.17,3.66-5.94,7.51-8.82,11.4.75,2.86.94,5.69-1.44,7.57-1.19.94-2.43,1.73-3.76,2.52-2.35,1.38-1.87,1.05-2.77,4.09-.78,2.63-1.51,5.7-3.91,7.1-.91.53-1.85.85-2.88.53-.05-.33-.24-.57-.27-.81,0-.44.04-.86.13-1.26-.02-.72.19-1.42.35-2.18l1.3-6.21c-2.36,1.84-4.11,4.03-5.86,6.32-.84,1.1-1.67,2.06-2.76,2.87-.41.3-.76.32-1.16.46-.36.08-.73.15-1.08-.01-.27-.23-1.02-.33-1.13-.83-.12-1.06.4-2.07.97-2.95l4.96-7.65c-1.5.72-2.53,1.81-3.72,2.8l-4.81,4.02c-.76.64-1.62,1.34-2.62,1.5s-1.94-.53-2.26-1.44-.17-1.72.48-2.49c.09-.19.21-.37.36-.54.79-.61,1.44-1.39,2.22-2.14.69-.67,1.44-1.3,2.18-1.92l1.57-1.33c.34-.65.76-1.02,1.26-1.11,0-.12-.06-.18-.18-.18-.05.23-.23.29-.54.18l-6.45,2.04c-1.58.5-4.08,1.05-4.94-.65-.61-1.21.19-2.28.88-3.24-.02-.25.3-.43.55-.48.22-.2.48-.41.76-.53.02-.22.35-.39.55-.39,3.67-1.72,7.4-3.25,11.35-4.45,1.84-.56,3.82-.57,5.43-1.31.11-.2.1-.34,0-.54-.3.05-.52-.18-.85-.28l-3.87-1.13c-2.29-.67-3.71-2.43-3.41-4.87.04-.37-.22-.85.19-1.12.02-.19.18-.35.37-.36.94-.8,8.94,1.35,10.14,1.76l5.94,2.07c.33-1.17.8-2.09,1.3-3.09,1-2,1.95-3.95,2.79-6.02.39-.95.81-1.8,1.26-2.69l1.4-2.77c.27-.53.4-.98.67-1.5l2.52-4.72,1.69-3.49c.24-.5.85-1.28.98-1.74-.06-.28.08-.51.39-.71,1.07-1.88,2.27-3.65,3.95-5.04.38-.55,1.04-1.07,1.61-1.34.05-.04.12-.11.18-.13.07-.24.28-.4.54-.37.04-.05.13-.15.19-.17.01-.24.32-.41.57-.37.96-.78,1.79-1.65,2.41-2.82,1.57-2.97,3.66-5.91,5.34-8.73.13-.27.31-.5.55-.71.09-.28.29-.54.51-.72.06-.18.18-.36.35-.56.4-.51,1.33-1.05,1.41-1.84.32-3.17,1.28-6.04,2.4-9.03l.53-1.41c-.35.93,1.86-3.38,1.81-2.86l.35-.56,1.89-2.04c.62-.67,1.35-1.15,2.08-1.54.1-.25.31-.46.58-.36.72-.73,3.69-1.64,4.94-1.85l5.53-.95c2.58-.44,4.97-1.4,7.38-2.6,1.45-.72,2.81-1.46,4.42-1.76.38-1.43.1-2.36.49-3.62.69-.34.86.34.34.84Z"/>
          <path class="cls-1" d="M126.94,82.26c-.26,4.82-.44,5.48.04,10.47-.12.27-.54.34-.64.02l-.38-.59c-.2-4.48-.05-8.96.45-13.44.43-2.41,1.02-4.77,1.78-7.06-1.04-.16-2.04-.5-2.99-1.04-2,2.13-4.69,2.03-7.31,1.34l.69,9.54c.2.57.12.95-.22,1.15-.1.37-.41.35-.5,0-.46-.49-.66-1.14-.61-1.96-.23-3.15-.35-6.22-.37-9.21-1.3-.4-2.44-1.3-3.38-2.28l-2.8.49c-1.74.05-3.07-.83-4.08-2.19-4.68,1.5-10.49,1.16-14.56-1.93-1.27,1.26-3.86,2.02-5.68,2.44-2.76.63-7.91,1.19-10.38-.4-.09-.06-.16-.13-.17-.24-2.01,3.4-7.55,6.25-11.57,5.51l-.92.08c-.36.46-.73.89-1.11,1.28-.19.11-.37.1-.54-.04l-.08.5c-1.99,1.85-4.49,2.7-7.21,2.35l.55,2.36c1.61,4.83,3.2,9.73,4.79,14.68.31.2.54.44.67.7.14.03.25.07.28.15.25.57.63,1.65.78,2.25.02.08-.05.18-.15.29-.11.55-.12,1.09-.03,1.62l.36.61c.15,5.14.79,10.27,1.93,15.39l-.09.95.58.6c3.28,10.42,13.69,17.69,23.97,19.47l.16.38c.03.29.34.4.56.55-.16.06-.31.12-.48.16s-.32.06-.46.03c-3.41-.69-6.78-1.7-9.87-3.28h-.53c0-.42.03-.63-.34-.86-4.67-2.87-6.82-4.41-10.27-8.83-1.01-1.3-3.27-5.54-3.73-7.31-.78.07-1.43-.05-2.08-.44-2.4-1.44-4.42-3.32-6.08-5.58-2.42-3.29-2.21-8.75-1.14-12.49.43-1.49,1.1-2.87,2.19-3.97.74-.75,1.83-.72,2.89-.41l-3.92-12.02c-.61-1.86-1.13-3.58-1.46-5.56-3.56-.9-5.33-4.45-4.95-8.05-2.98-1.79-4.78-4.96-4.45-8.48s2.96-6.38,6.23-7.54l-.15-.91c-.27-1.6,2.94-9.57,8.96-12.18,3.32-1.44,6.95-1.56,10.55-.81.62-1.13,1.61-1.88,2.49-2.75,1.72-1.71,3.61-2.83,5.85-3.73,5.39-2.18,9.88-1.79,15.1.87,1.31-1.54,2.98-2.43,4.9-3.07,7.38-2.47,13.99,1.15,14.94.96l4.16-.81c4.44-.87,16.47,4.69,16.82,12.39,2.09,1.45,5.28,4,6.09,6.41,1.66,4.97-.41,10.39-4.84,13.17.18,1,.62,2.04.29,3.06-.92,2.82-3.28,5.33-6.19,6.25-1.24,3.6-2.14,7.29-2.34,11.03Z"/>
          <path class="cls-1" d="M60.43,90.25l.35.62c.18,4.43,1.94,9.41,5.47,12.18l.15.51c.52-.29,1.34.31,1.65.76l.64-.06c2.12,1.09,4.53,1.53,6.89,1.24l.58.28c.51-.43,1.16-.65,1.97-.66,2.95-1.23,5.85-2.57,8.71-4.03,1.2-.72,2.31-1.55,3.34-2.48.85-.51,1.57-.64,2.52-.25,1.42,1.05,2.93,1.95,4.54,2.71.92.25,1.64.67,2.15,1.26.28-.48,1.48-.06,1.33.5h.81c1.65.75,3.38,1.32,5.16,1.68l.65.49c.44-.05.85-.17,1.25-.38,3.21-.21,7.5-1.56,9.67-4.06s3.3-6.24,3.72-9.55l.42-.25c0-.35.13-.35.26-.01.42.2.54.65.35,1.36l-.23,1.52,3.21-1.17.34.28c.18-.05.47-.09.64-.02.72.34.56.53-.49.59l-.29.39c-.88.14-3.13.95-3.66,1.55-.34.38-.64,1.42-.74,1.95.09,2.59-.08,5.15-.51,7.68.08.05.15.1.2.17.06.09-.29,1.24-.38,1.44l.33.35-.96,6.27-.41.23c.46.19.39.39-.11.37l-.04.35c.39.44.35.68-.11.73-.35.67-.4,1.43-.57,2.17-.36.13-.32-.27-.16-.54-.24-.34,0-1.2.18-1.62,0-.33.06-.69.18-1.08l.21-.91c-.19-.71-.15-1.49.1-2.36.21-.91,1.13-11.08.67-10.58-3.09,4.67-9.86,6.97-15.22,5.64-4.42-1.09-9.44-3.31-13.11-5.96-.49-.09-.96.05-1.4.42-2.75,2.39-6.37,3.98-9.81,5.47-4.75,2.06-8.9,1.95-13.56-.33-2.77-1.35-5.63-3.9-5.8-7.11-.24.12-.3-.06-.19-.54-.31-.89-.71-1.76-.92-2.69-.09-.03-.18-.07-.25-.13-.27-.24-.55-3.68-.47-4.21l.37-.19c.11-.47.21-.47.36,0Z"/>
          <path class="cls-1" d="M128.08,93.15c.18.05.37.19.56.4,1.52,1.72,2.68,3.62,3.61,5.73.23,1.13.35,2.27.38,3.43,0,.06,0,.12,0,.18l-.2,1.8c-.33,1.25-.4,2.56-.84,3.86-1.32,3.82-5.28,6.03-8.88,6.95-.39.14-.75.13-1.08,0-1.04.1-1.03-.68-1.8-.69.14-.27-.15-.87.15-1.08,1.56.93,2.81.82,4.54.25,6.74-2.23,7.59-8.11,7.37-14.33-.44-.28-.74-.75-.89-1.41-.8-1.79-1.9-3.26-3.3-4.42-.6-.03-1-.19-1.2-.49.13-.22.39-.17.73-.2-.04-.19-.23-.26-.24-.39l1.11.41Z"/>
          <path class="cls-1" d="M118.52,119.32c-.55,1.71-1.57,3.21-2.61,4.77s-2.39,2.66-3.88,3.69c-1.09.75-2.08,1.44-3.2,1.93-.04-.05-.02-.14.07-.25l-.07-.39c3.94-2.48,7.53-5.52,9.24-10.07l.31-.23c.12.09.17.27.15.56Z"/>
          <path class="cls-1" d="M108.82,129.71c-.58.26-1.13.87-1.79,1.22l-6.29,3.29c.03-.14,0-.31-.04-.44l-.02-.4c2.61-1.38,5.23-2.76,7.84-4.14l.36.22c.19.04,0,.2-.07.25Z"/>
          <path class="cls-1" d="M119.24,116.96c-.39,1.74-.21.78-.72,2.36-.21-.08-.15-.37-.15-.56.02-.7.2-1.42.54-2.17-.13-.19-.04-.28.18-.18-.02.19-.04.45.16.54Z"/>
          <path class="cls-1" d="M132.62,102.71c-.3.09-.12-2.59-.38-3.43.47,1.08.4,2.24.38,3.43Z"/>
          <path class="cls-1" d="M132.42,104.69c.09-.22-.12-1.98.2-1.8.11.66-.05,1.22-.2,1.8Z"/>
          <path class="cls-1" d="M32.64,178.11c-.5.48-1.07.89-1.61,1.34-.02-.5.48-.7.89-.96.14-.09.2-.32.34-.43.1-.08.26-.1.38.05Z"/>
          <path class="cls-1" d="M41.86,165.51c-.19-.3.23-.58.55-.71-.1.3-.24.58-.55.71Z"/>
          <path class="cls-1" d="M33.36,177.6c-.15.17-.33.29-.54.37-.35-.06,0-.27.09-.38.14-.18.31-.11.45.01Z"/>
          <path class="cls-1" d="M34.12,177.06c-.18.15-.35.29-.57.37-.35-.06,0-.28.09-.38.16-.19.34-.08.48.02Z"/>
          <path class="cls-1" d="M122.7,115.5c-.39.1-.69.39-1.08,0,.36.04.72.04,1.08,0Z"/>
          <path class="cls-1" d="M124.32,144.4c-.17-.18-.49-.25-.54-.54.12.03.41.08.53.24.06.08.33.25.01.3Z"/>
          <path class="cls-1" d="M42.93,164.08c-.29-.05-.11-.19-.01-.3.1-.11.28-.14.37-.26,0,.24-.12.47-.35.56Z"/>
          <path class="cls-1" d="M54.33,143.87c-.16.16-.38.26-.58.36-.01-.16.02-.32.17-.48.12-.13.25.04.41.12Z"/>
          <path class="cls-1" d="M128.64,93.54c-.25-.02-.48-.16-.56-.4.31-.33.39.21.56.4Z"/>
          <path class="cls-1" d="M49.43,148.38c-.12-.26.14-.32.35-.56-.01.23-.1.51-.35.56Z"/>
          <path class="cls-1" d="M80.84,154.88l.08.38c-2.75,5.23-1.22,10.78,1.37,15.67l-.47.52c-5.43,2.29-9.68,7.59-11.72,13.12-.17.33-.37.35-.65.09-2.52-2.36-6.31-6.47-7.84-9.66-1.22-2.56,1.01-3.77,1.14-6.43.04-.79,0-1.55.12-2.26.12-.03.23-.04.29,0,2.76,2.29,5.56,4.66,8.01,7.29.32.29.52.6.59.95.36.05.64.54.75.9.31.28.31.22,0-.18-.3-.3-.49-.6-.56-.9-2.84-2.9-5.81-5.62-8.92-8.17l-.08-.31c-.14-.12-.38-.13-.54-.2l-1.16.89c-.72,2.9-2.06,5.54-4.22,7.66-2.22,2.1-4.4,4.27-6.5,6.49-3.29,3.47-6.09,6.69-7.85,11-.37.98-.93,1.67-1.68,2.08-2.06.29-4.14.13-6.28-.08-1.25-.13-2.48-.23-3.57-.94-1.44-.94-1.79-5.89-1.81-7.6-.01-.91-.44-2.14-.01-2.98,1.27-2.51,5.71-4.34,7.19-6.84,2.59-4.37,5.13-8.68,8.28-12.66.32-.41.61-.68.75-1.19.21.68.03,1.36.42,1.86.29.37.84.05,1.19-.12l10.34-4.86c3.74-1.76,7.38-3.35,10.94-5.44,1.2-.7,2.6-1.31,3.19-2.42-.47-.34-.14-.7.35-.37,2.98,1.42,5.95,2.87,8.91,4.34l-.05.38Z"/>
          <path class="cls-1" d="M130.45,163.56c2.52,4.29,4.98,8.6,6.84,13.31-.98,2.78-4.15,4.29-6.65,5.07-.18.39-.86.47-1.26.36-.5.18-.38.25.36.18.38-.27.86-.39,1.44-.36,2.45-.55,4.69-1.99,6.16-4.11.29-.42.45-.86.38-1.23,1.05.38,5.23,3.36,5.01,4.09.19.23.43.54.24.79.41,1.14.69,2.53.3,3.72.24.46.46,3.24-.32,3.67-1.24.68-2.66,1.02-4.07,1.11-2.67.17-5.35.24-7.92-.24-.82-.52-1.5-1.24-2.06-2.19-3.37-4.89-7.09-9.55-11.16-13.97l-.29-.64c.44-2.03.85-4.06,1.2-6.19l1.12-6.8c.04-.22-.14-.4-.25-.42-.8-.16-.89,4.41-2.02,6.82-1.39,2.95-3.03,5.63-4.81,8.35-.07,1.7-.53,3.2-.79,4.73-.51-.13-.93-.53-1.25-1.22-.34-.64-.78-.95-1.33-.93l-.18-.14c.07-.56.07-1.09,0-1.58-1.69-1.43-3.41-2.9-4.8-4.63-.17-.21-.23-.47-.19-.74v-.33c4.01-4.32,4.2-12.07.49-16.59,0-.16,0-.3.09-.36,2.11-1.78,4.69-3.22,7.13-4.37,1.6.56,3.06,1.54,4.39,2.94l10.69,9.39c1.16.91,2.33,1.75,3.51,2.53Z"/>
          <path class="cls-1" d="M88.76,137.04l1.81.33c1.09.2,1.77-.2,2.72-.53,2.29-.8,4.5-1.33,6.86-2.44-.25,1.62.39,2.93.34,4.34-.1,2.58-1.38,4.99-2.61,7.17-.62,1.11-1.55,1.68-2.28,2.48l-.55.24c-1.7-.21-3.43-.08-5.05.48l-.82-.08c-4.33-1.48-10.31-6.99-12.14-11.49.27-1.26.38-2.42.39-3.61.07-.16.16-.33.28-.36.15-.03.35,0,.51.09,3.34,1.71,6.94,2.72,10.54,3.37Z"/>
          <path class="cls-1" d="M48.38,252.65c.29-1.82.8-3.26,1.41-4.85,1.96-5.06,4.16-9.87,6.48-14.78,2.52-5.33,5.52-10.19,8.7-15.12,2.02-3.12,6.18-9.47,6.67-12.9.56-3.9-.27-7.78-.59-11.63-.13-1.58-.81-2.72-1.88-3.79-1.61-1.62-3.5-2.96-4.89-4.79-.78-1.13-.86-2.77-1.36-4.05s-.96-2.59-1.05-4.19c1.61,2.64,3.73,4.88,5.91,7.22,1.66,1.77,3.23,3.48,4.25,5.7,1.25,2.73,1.7,5.65,1.84,8.64l.36,7.75c.11,2.28-1.01,4.33-2.17,6.27l-7.92,13.19c-2.62,4.37-5.09,8.61-7.48,13.1-1.92,3.61-3.28,7.27-4.94,11-.88,1.21-2.25,2.16-3.34,3.22Z"/>
          <path class="cls-1" d="M49.66,157.83c-.93-1.94-1.31-3.97-1.14-6.01.08-.95.48-1.56.95-2.31,2.25-3.65,5.8-6.16,10.08-6.9,1.87-.32,3.61-.65,5.46-.82,1.99,1.59,3.51,3.66,3.97,6.15-3.95,2.32-7.81,4.33-11.78,6.37-2.46,1.27-4.79,2.38-7.53,3.52Z"/>
          <path class="cls-1" d="M136.94,245.92c-1.28-1.53-2.28-3.04-3.34-4.68-3.07-4.75-6.4-9.13-9.75-13.7l-6.88-9.39c-2.75-3.75-7.15-10.07-7.9-14.6s1.65-14.48,2.56-19.31l1.49-7.9c-.13-.76.26-1.35.53-2.03,1.6-2.16,2.67-4.49,3.99-6.88-.4,2.7-.12,5.71-1.55,7.75l-1.91,2.71-1.79,9.06c-.45,2.3-2.83,13.15-2.13,14.48l2.2,4.16,13.96,21.56c4.61,7.12,9.65,13.83,13.73,21.23-1.35-.63-2.06-1.66-3.22-2.45Z"/>
          <path class="cls-1" d="M84.61,153.24c.3-.22,1.33.26,1.44.49.06.12-1.39,1.87-1.6,2.06l-.44-.05c-.36.04-.74-.04-1.14-.26l-10.91-5.31c-.2.04-.27.21-.35.37-3.17,1.93-6.37,3.72-9.82,5.32l-15.46,7.16c-.87-4.15-.51-6.7,1.5-10.46.25,2,.42,3.88,1.4,5.57.22.37.89.03,1.23-.06,4.78-2.06,9.31-4.36,13.86-6.89l5.24-2.92c-.29-2.66-1.8-4.89-3.96-6.65l3-.84c1.66,1.74,2.79,3.85,3.47,6.15l4.11,2.13c2.83,1.46,5.61,2.85,8.42,4.19Z"/>
          <path class="cls-1" d="M114.57,141.29c.31.08.33.15.01.24-.39,0,.25,2.79.35,3.21.25,1.01.59,1.91,1.3,2.73,2.33,2.68,4.92,5,7.61,7.32,1.6,1.37,3.13,2.62,4.98,3.74-.09,1.54.38,2.87.93,4.22-.28.07-.53.03-.75-.14-4.33-3.54-8.52-7.14-12.59-10.82-1.39-1.39-2.91-2.42-4.57-3.09-3.2,1.67-6.25,3.56-9.14,5.66l-.19-.07c-.7.1-1.83-1.01-1.81-1.7,2.61-2,5.36-3.81,7.9-6.02.39-.34.33-1.17.3-1.63l-.25-4.67,2.51.45c.11,1.73-.42,3.45,0,5.25.42-1.78.51-3.44.45-5.18,1.13.03,2.02.37,2.95.49Z"/>
          <path class="cls-1" d="M87.13,148.9l-.1.32c-1.26.78-2.51,1.6-3.51,2.7l-.34.02c-.79-.27-1.52-.66-2.34-1.07l-8.39-4.2c-.15-1.96-1.9-4.69-3.31-6.09l5.67-2.75,1.6-.66c1.39,4.44,5.94,8.72,9.92,11.12.32.2.53.48.81.62Z"/>
          <path class="cls-1" d="M114.59,141.53v-.24c5.13.65,9.73,1.98,12,7.22,1.27,2.93,2.02,6.05,2.13,9.26-1.69-1.04-3.03-2.18-4.46-3.39-2.42-2.06-4.74-4.12-6.91-6.41-1.05-1.11-1.67-2.18-2.02-3.68-.22-.94-.18-2.06-.74-2.75Z"/>
          <path class="cls-1" d="M102.08,150.78l-.74-.06-1.93-1.12c-1.01-.33-1.85-.81-2.54-1.43,2.26-2.92,3.96-6.21,4.22-10.03,1.81.91,3.72,1.35,5.72,1.74.5.1.98.14,1.39.45.07,1.98.2,3.85.07,5.83-2.07,1.66-4.05,3.25-6.18,4.63Z"/>
          <path class="cls-1" d="M62.42,165.67c-.09,2.25-.05,3.75-1.21,5.88-1.34,2.47-3,4.57-4.95,6.61l-9.49,9.96c-1.43,1.5-1.68,3.91-3.32,5.37-.71.33-1.69.2-2.45.3,2.29-3.31,2.43-5.42,5.13-8.67,3.18-3.82,6.58-7.29,10.18-10.71,2.28-2.16,3.76-4.58,4.46-7.62.17-.75,1.02-1.4,1.64-1.13Z"/>
          <path class="cls-1" d="M118.73,116.6c.05-.16.11-.16.18,0-.09.73-.29,1.46-.54,2.17-.55,1.55-1.33,2.97-2.27,4.4-1.25,1.89-2.88,3.31-4.76,4.6l-2.45,1.69-8.18,4.32-4.49,1.58c-1.46.51-2.95.95-4.42,1.41-1.23.38-2.44-.2-3.59-.28-.62-.04-3.84-.74-4.6-1.02-5.01-1.91-9.76-4.56-13.61-8.38-3.11-3.08-5.2-6.99-6.49-11.04.53-.95,1.63.24,1.95,1.01,3.09,10.7,13.27,15.88,23.37,18.49.94.24,1.96.44,2.86.15,5.9-1.95,11.33-4.98,16.7-8.13,4.8-2.82,8.36-5.12,9.9-10.67l.44-.29Z"/>
          <path class="cls-1" d="M81.32,155.1l.04.32c-2.77,5.21-1.33,11,1.8,15.66-.15-.31.2-.06.41.16,0,.33-.19.5-.43.67-2.28,1.61-4.63,3.06-7.08,4.35-.06.03-.15-.02-.26-.08-.17.39-.18.81-.03,1.27.15.04.14.1,0,.17-.09.58-.42,1.14-.98,1.67-1.23,1.68-2.22,3.48-2.98,5.41-.29,1.48-.76,1.86-1.4,1.13-.22-.41-.88-.62-.96-1.15.26-.07.38-.28.48-.58,1.15-3.5,2.73-5.17,4.81-7.89.62-.81,4.04-3.69,4.79-4.06l1.32-.66c.3-.15,1.36-.38,1.1-.88-2.73-5.19-3.89-10.38-1.1-15.71.27-.38.59-.24.48.22Z"/>
          <path class="cls-1" d="M130.97,189.9c-.77-.14-2,.04-2.63-.59l-4.41-6.44c-1.99-2.91-4.44-5.35-6.94-7.81.06-.71.34-1.32.48-1.95,2.95,2.96,5.61,6.23,8.28,9.55,1.28,1.59,2.29,3.21,3.46,4.85.6.84,1.28,1.56,1.77,2.4Z"/>
          <path class="cls-1" d="M94.74,150.36l.52-.32c1.43.25,3.66.79,4.79,1.7l.24.55c-.2.09-.18.4-.13.57.03.09-.04.09-.21,0h-.63c-6.34-3.97-14.74-.08-15.71,7.4-.98,7.55,6.22,13.32,13.39,11.15l.59.19c.44-.19.87-.3,1.28-.32.27-.21.41-.14.32.2-.43.71-1.87,1.17-2.76,1.4-.96.25-2.58.58-3.34-.02-1.58,0-2.88-.34-4.34-.86-.13-.05-.19-.15-.18-.31-.12.33-.27.32-.3-.04l-.34.05-2.14-1.65.05-.44-.56-.08c-2.76-2.45-3.21-6.57-2.64-9.98l-.23-.42,1.11-3.2c.01-.2.18-.27.49-.2l1.75-1.97c-.37-.43-.79-.36-1.16-.53.03-.15.18-.22.32-.22.13-.41.46-.39.99.05.54-.53,1.19-.89,1.95-1.11.07-.23.17-.45.36-.6.72-.56,2.03-.78,2.91-.93.89.26,1.84.21,2.67-.26l.92.19Z"/>
          <path class="cls-1" d="M129.77,162.75c.42.26.43.38.68.81-.47-.04-.97-.28-1.43-.6-2.46-1.75-4.59-3.72-6.85-5.74-2.83-2.53-5.51-5.04-8.51-7.36-.56-.44-1.08-.71-1.78-.93l-2.41,1.21c-1.77.89-3.29,2.15-4.83,3.3.24.27.12.35-.19.15.04.46.02.47-.35.2.19.27.1.37-.19.19.2.44.05.51-.31.19.17.52-.54.81-.81.35-.3.22-.42.12-.26-.21l2.5-1.75c2.17-1.52,4.33-3,6.78-4.08.75-.08,1.6.56,2.16,1.01l2.62,2.11,6.54,5.73c2.19,1.92,4.23,3.94,6.64,5.42Z"/>
          <path class="cls-1" d="M102.53,154.29c.09.07.15.17.26.21.65.27,1.14,1.28,1.45,1.95,1.67,3.71,1.59,7.07-.23,10.7-.31.62-.78,1.51-1.38,1.78.24.37.21.38-.2.27-.31.62-1.67,1.93-2.26,2.11-.16.05-.35-.02-.51-.09-.25.1-.51.11-.78.05-.4.23-.91.2-1.28.32l.3-.53c7.14-3.25,8.42-12.75,2.23-17.64l-.17-.58h.21c.24,0,.39-.15.56-.28.57.6,1.15,1.21,1.81,1.7Z"/>
          <path class="cls-1" d="M76.17,180.68c-.4-.09-.17-.66-.33-1.17-.53.32-1.67,1.96-2.07,2.78l-1.07,2.18c-.49,1-.59,2.12-1.09,3.05-.33-.61-.88-1.1-1.21-1.72.15.02.34.15.46.11.15-.05.33-.3.36-.47.13-.92.63-1.61.98-2.42.29-.69.49-1.33.93-1.95.86-1.23,1.57-2.51,2.64-3.47.16-.01.36,0,.4.12.18.64.36,2.04.31,2.69-.01.13-.16.22-.3.27Z"/>
          <path class="cls-1" d="M111.91,179.58c-.22,1.28-.52,2.51-.78,3.77-.11.12-.25.21-.39.16-.24-.09-1.43-2.12-1.57-2.49-.08-.05-.16-.1-.21-.17-.1-.13.06-3.01.16-3.32.01-.05.11-.07.22-.09l.39-.64c.97.84,1.59,1.82,2.2,2.78Z"/>
          <path class="cls-1" d="M101.39,151.29c-.38.31-.64.8-1.11,1.02-1.72-1.02-3.54-1.82-5.55-1.94-.17-.04-.3-.11-.39-.21l1.88-1.4.58-.19c1.29.34,3.4,1.28,4.42,2.14l.16.59Z"/>
          <path class="cls-1" d="M95.6,148.39c-1.4,1.53-3.42,2.11-5.49,1.13-.27-.13-.67-.4-.92-.49,1.99-.83,4.29-1.1,6.41-.64Z"/>
          <path class="cls-1" d="M113.49,186.79c-.1-.18-.24-.34-.45-.39l1.56-8.24c.13-.71.98-1.18,1.21-1.84l-2.32,10.47Z"/>
          <path class="cls-1" d="M71.96,174.36c.24.26.13.38-.19.18-2.05-2.47-6.42-5.99-8.89-8.24.02-.14.07-.28.08-.42l5.46,4.63c1.38,1.17,2.58,2.41,3.54,3.85Z"/>
          <path class="cls-1" d="M91.15,150.43c.12.17-.02.2-.21.26-1.1.34-2.12.75-3.06,1.27-.52.5-2.23.73-1.69-.24.38-.68,2.02-1.76,2.78-1.92l2.19.64Z"/>
          <path class="cls-1" d="M102.08,150.78c-.21.14-.42.42-.69.5-1.49-1.26-3.32-1.93-5.16-2.54.21-.15.43-.46.65-.58,1.88.59,3.58,1.5,5.2,2.61Z"/>
          <path class="cls-1" d="M88.79,149.63l.17.17c-.55.58-1.95.87-2.58,2.1.51.52,1.02.14,1.5.06-.65.36-1.18,1.01-1.87,1.44-.41-.01-.69-.4-1.06-.38l-.12-.28c.69-1.31,2.1-2.24,3.41-2.94-.07-.37.26-.27.56-.17Z"/>
          <path class="cls-1" d="M87.64,149.06l-.03.27c-1.38.76-2.59,1.69-3.63,2.82l-.26.02c-.21-.01-.35-.18-.53-.24,1.11-1.24,2.53-2.17,3.95-3.04.16.08.36.03.51.17Z"/>
          <path class="cls-1" d="M88.79,149.63c-.2,0-.37.11-.56.17-1.37.66-2.52,1.68-3.52,2.81l-.24.04c-.19-.02-.29-.19-.41-.29-.04-.13-.06-.25-.01-.3.94-1.11,2.45-2.1,3.71-2.82.06-.04.17,0,.29.06.26.09.53.13.74.33Z"/>
          <path class="cls-1" d="M88.04,149.3c-1.45.86-2.92,1.74-3.99,3.06-.1-.03-.25-.18-.35-.19.97-1.39,2.58-2.11,3.93-3.11.09.09.28.19.4.23Z"/>
          <path class="cls-1" d="M88.23,149.8c-1.25.85-2.36,1.84-3.41,2.94-.13.02-.23-.08-.35-.09.99-1.23,2.24-2.4,3.76-2.85Z"/>
          <path class="cls-1" d="M94.35,150.15c.12,0,.39.06.39.21-.3-.02-.74.12-.92-.19.14-.06.38-.02.53-.02Z"/>
          <path class="cls-1" d="M87.32,66.73c-3.05,1.05-7.69,1.32-10.65.23-.33-.12-1.13-.56-1.36-.14-.39.72-.79,1.08-1.39,1.56-7.46,5.95-9.69,3.12-10.7,3.95l-2.34,1.93c-1.77,1.46-3.71,2.13-6.08,1.92-3.07-.27-5.42-2.69-5.77-5.79-.06-.56-.33-1.16-.04-1.66,1.96-.87-3.58-1.3-4.19-7.42-.27-2.74,1.15-5.2,3.25-6.89.84-.68,1.73-1.01,2.66-1.49.45-.23,0-1.12.09-1.49,2.32-9.8,9.16-14.22,19.17-12.24,1.18-2.09,4.54-4.9,6.62-5.86,6.03-2.79,10.69-2.84,16.57.38l1.67-1.66c2-1.99,7.12-2.44,10.04-2.36,4,.11,7.23,2.01,8.06,1.82l3.82-.85c3.41-.76,14.86,3.07,16.25,11.22.13.79.59,1.24,1.23,1.66,1.18.77,2.19,1.75,3.21,2.72,1.54,1.48,2.24,3.4,2.31,5.5.09,2.76-.67,4.91-2.34,7.18-.72.97-1.74,1.64-2.63,2.4-.95.82.62,1.92-.08,3.77-1.02,2.7-3.63,5.58-6.77,5.63-1.1.02-1.99-.72-2.9-1.3-3.06,3.74-8.67,1.72-11.4-1.31-2.58.85-5.37.91-6.65-1.76-.51-.09-.81.36-1.26.45-8.99,1.98-12.99-2.06-13.65-2.13-.38-.04-.59.28-.94.51-1.14.75-2.46,1.05-3.82,1.52Z"/>
          <path class="cls-1" d="M119.65,112.81l-.21.91c-.06.37-.14.78-.36,1.08.06.45,0,1.37-.36,1.8-.23,1.15-.84,2.22-1.34,3.35-1.01,2.25-2.6,3.91-4.61,5.3-2.76,1.91-5.62,3.37-8.54,5.05-3.77,2.18-7.53,4.06-11.65,5.46-.91.31-1.55.55-2.58.37-3.25-.56-6.29-1.67-9.34-2.96s-5.74-2.94-8.3-5.06c-3.42-2.82-5.86-6.37-7.16-10.66-.26-.87-.8-1.52-1.71-1.43-.99-3.09-1.43-6.33-1.72-9.65l-.39-4.44c-.09-.99-.1-1.93-.1-2.85-.21-.69-.13-1.06.22-1.08.77,2.21,2.08,4.38,4.16,5.76,3.66,2.42,9.01,3.65,13.14,2.11,3.25-1.21,6.24-2.8,9.27-4.37,1.2-.62,3.15-3.14,4.35-2.15,1.03.84,2.01,1.5,3.22,2.07,3.11,1.46,7.98,3.54,11.34,4.11,3,.29,5.77-.56,8.44-1.81,2.44-1.14,4.31-2.89,5.4-5.44.19,2.89.11,5.48-.3,8.22-.33,2.14-.28,4.29-.88,6.3Z"/>
          <path class="cls-1" d="M117.85,82.65c-.06.4-1.09.3-1.29.02l-.87-.4c-4.48-3.24-10.53-2.24-15.58-1.1l-.88.03c-.24.25-.62.4-1.14.46-.65.16-.89.36-1.2.86-.4.2-3.36.29-4.04.31-.04,0-.09-.06-.13-.13-.94.23-1.93.34-2.95.31l-5.43-.14c-.45-1.14-1.38-1.4-2.5-1.6l-.11-.24-1.03-.07c-4.15-1.09-12.77-1.98-16,1.55-.39.42-.34.5.18.49,1.85-.35,8.05-1.11,9.41.12.05.05.04.15.02.28l-.06.24c-3.74.17-7.48.56-11.2,1.17l-.3-.13-.35-.25c.28-1.17.47-2.35.59-3.53l-.96-6.31.2-.36c-.11-.84,1.02-1.61.95-1.59,2.16-.54,2.18.97,6.77-1.04,2.33-1.02,4.29-2.44,5.81-4.53,3.43,1.91,8.76,1.29,12.27.06,1.41-.49,2.83-.8,4.04-1.88,3.26,2.25,7.05,3.07,10.96,2.62,1.3-.15,2.48-.18,3.63-.97,1.02,1.6,2.66,2.73,4.46,2.37l2.48-.5c1,1.15,2.19,1.91,3.54,2.51l.28,5.61c.1,1.99.12,3.89.45,5.76Z"/>
          <path class="cls-1" d="M126.33,92.76l-1.82.54c-.73.22-1.39.72-2.15.92.07-1.21.47-2.35.29-3.46l-.13-.05c.14-2.24-.28-4.51-1.09-6.57-.8-.7-1.81-1.1-3.04-1.21l-.05-.27c.04-.34-.11-.69-.14-1.12l-.73-10.1c3.06.83,5.23,1.17,7.63-1.23,1.62.56,1.46,1,3.64,1.14-1.79,4.75-2.59,9.54-2.46,14.56.02.69-.11,1.29-.05,1.99.16,1.67.03,3.28.09,4.85Z"/>
          <path class="cls-1" d="M60.76,98.71c-.01.52-.08.43-.35.03-.41-.28-.4-.08.05.58l.15.52c.2.82.32,1.51.19,2.39-1.93-.18-3.15,1.08-3.49,2.79-.17.81.07,1.21.26,1.83,1.11,1.7,1.15,1.75.14.15l.03-.14c-.27-1.33.03-2.7.92-3.56.6-.59,1.49-.67,2.29-.59.29,4.34.82,8.48,1.63,12.62-.27.04-.56.08-.81-.03-2.82-1.24-6.36-4.9-7.64-7.7-.82-3.6-.5-9.34,1.98-12.27,1.35-1.59,2.89-.27,4.51.57.16.98-.06,1.92.14,2.82Z"/>
          <path class="cls-1" d="M61.89,84.98v.22c-.8.5-1.22,1.29-1.24,2.39l-.22.13c.08.06.14.13.13.18-.04.57-.18,1.68-.3,2.23-.01.05-.09.09-.19.12-.07.39.24,4.02.35,4.53-.88-.06-1.13-.63-1.34-1.41-.63-2.39-1.43-4.63-2.2-6.96l-2.28-6.92-.66-2.85c4.33.32,4.88-.37,7.75-2.46.09,0,.18,0,.25.03.37.18.97,7.24.87,8.07-.09.75-.37,2.27-.92,2.68Z"/>
          <path class="cls-1" d="M99.23,81.21c.79-.22,1.09-.15.9.21l-.46.44c4.16.02,8.31.08,12.43.19,1.17-.06,2.27.09,3.32.45.2-.3.57-.24,1.13.17l1.29-.02c.15,0,.36-.04.5,0,.94.32,1.95.35,2.83.98.19.14.16.39.26.5-.02.16-.07.17-.17.02l-.4.11c-.74-.45-1.57-.67-2.51-.67l-.18-.39-.77.26c-1.85-.1-3.68-.22-5.51-.33l-.37-.25c0,.55-1.39.51-1.48-.02l-.79.34c-5.31-.16-10.79-.24-16.18.12l-.25-.36c-.31-.04-.37-.07-.12-.27l3.83-.34c.69-.83,1.68-1.08,2.68-1.16Z"/>
          <path class="cls-1" d="M62.57,115.32c.1.51.35.81.4,1.29-2.79.05-8.85-6.35-8.85-9.03,2.17,3.05,4.91,5.91,8.45,7.73Z"/>
          <path class="cls-1" d="M62.23,74.23c.25,1.98.46,3.94,1.01,5.95.45,1.64-.5,3.16-.48,4.5.13.29-.79.66-.87.3.42-2.88.81-2.22.55-5.18l-.3-3.31-.45-2.3c.08-.06.13-.36.27-.33s.16.33.27.37Z"/>
          <path class="cls-1" d="M60.41,98.73c.37.04.33.58.23.89-.02.12-.04.18-.04.2-1.01-1.51-1.66-2.44-3.92-2.16-.81.39-1.16,1.16-1.43,2.01-.31-1.08.29-1.97,1.14-2.52,1.58-.36,3.24.23,4.02,1.57Z"/>
          <path class="cls-1" d="M57.56,106.84h.17c.31.8,1.19,1.31,1.84,2.07-1.1-.08-1.69-1.03-2.01-2.07Z"/>
          <path class="cls-1" d="M61.52,98.01c-.3.22-.22.73-.22,1.08-.24-.45-.29-1.21.03-1.62l.19.54Z"/>
          <path class="cls-1" d="M60.76,98.71c.09.43.06.73-.12.92,0-.32-.07-.62-.23-.89l.35-.03Z"/>
          <path class="cls-1" d="M110.06,82.87c.1.29,0,.56-.34.82-3.33,6.03-6.58,12.12-9.75,18.26l-.57.39c-2.01-.76-4.06-1.63-5.85-2.97-.69-.51-1.1-.92-1.99-.87-1.58.09-2.18,1.78-4.71,2.99l-7.44,3.57c-1.12.54-2.17.52-3.24.71l-.23-.33c4.31-7.48,8.65-14.9,13.02-22.25.08-.1.16-.18.24-.19,1.15-.11,2.54-.13,3.65-.03l1.75-.04c1-.02,1.99-.07,2.99-.17,1.96-.2,3.92-.08,5.92-.04l6.56.14Z"/>
          <path class="cls-1" d="M78.49,83.58l.11.42-11.77,19.57h-.42c-1.66-.94-2.8-2.6-3.73-4.36-1.47-2.8-2.36-5.85-2.25-8.95-.23-.73-.12-1.92.36-2.53-.3-1.97.99-2.71,2.77-3.04,4.93-.61,9.83-1.07,14.7-1.37l.23.26Z"/>
          <path class="cls-1" d="M88.95,83.2c.16.33.05.63-.14.97l-1.73,3.01-2.9,4.85-2.84,4.74-5.18,9.02c-2.74.47-5.7-.06-8.11-1.46l-.12-.56c3.4-5.49,6.93-11,10.57-16.53.24-.74.6-1.27,1.08-1.59l.3.09c.37-.51.67-1.05.89-1.62l-.5-.18c-1.05.37-1.57.27-1.57-.31-.09-.18-.06-.32.13-.38.87-.3,4.58-.45,5.32-.45,1.54,0,3.31.13,4.8.41Z"/>
          <path class="cls-1" d="M126.49,93.32c.79-.04,1.55.04,2.16.77,1.36,1.63,2.69,3.49,3.23,5.55.61,6.52-1.61,13.03-8.87,14.17-.89.14-2.45.35-2.94-.46.3-1.71.85-4.98,1.04-6.85.33-1.32.77-2.61,1.33-3.85.99-.72,2.64-1.17,3.76-.28,1.25,1,.98,3.57.12,4.66.03.26.1.32.21.18.53-1.78,1.23-4.9-1.45-5.31-.73-.11-1.48.08-2.1.47-.12.01-.23,0-.31-.05-.22-.15-.05-.4-.04-.11,0,.14-.93,2.58-1.06,2.64-.08.03-.17.04-.27.03l.14-7.61c.01-.72.48-1.63.8-2.21.29-.53,1.08-.57,1.52-.86.89-.57,1.78-.83,2.74-.89Z"/>
          <path class="cls-1" d="M118.18,83.21c.42.33.41.86-.03,1.6-3.28,6.62-6.49,13.27-9.64,19.95-.36.15-.75.24-1.16.25-2.29-.38-4.55-1.13-6.62-2.17l-.15-.35c3.31-6.58,6.85-13.04,10.61-19.38l.34-.22c2.21.04,4.46,0,6.64.32Z"/>
          <path class="cls-1" d="M121.27,84.16c1.08,1.88,1.49,4.47,1.13,6.62-.62,3.2-.24,2.88-1.55,6.11-.8,1.97-1.86,3.77-3.54,5.11-.7.55-1.52.89-2.31,1.3-2.41,1.26-5,1.79-7.64,1.72.04-.21.59-.05.72-.17l1.94-4.01,6.54-13.8c.37-.78,1.77-2.86,1.62-3.82,1.06.16,2.29.11,3.09.94Z"/>
          <path class="cls-1" d="M80.78,84.12c-.22.56-.51,1.1-.89,1.62-.62.34-.71,1.16-1.12,1.76-3.05,4.48-5.89,9-8.71,13.64-.69,1.13-1.47,2.07-2.01,3.19-.65.03-1.13-.46-1.65-.76l11.25-18.81c.29-.48.51-.85.83-1.18.11-.15.18-.13.21.05.67.6,1.84-.72,2.07.49Z"/>
          <path class="cls-1" d="M111.54,82.9c.1.45-.21.76-.45,1.16l-1.44,2.35-4.16,7.41-3.3,6.45c-.26.51-1.26,2.56-1.46,2.59-.37-.19-.93-.35-1.33-.5.47-1.09,1.08-2.13,1.66-3.25l2.71-5.18,5.11-9.52c.33-.62.65-1.19,1.17-1.52l1.48.02Z"/>
          <path class="cls-1" d="M119.96,113.71c.06-.07.09-.27.11-.37,1.61.39,3.13.19,4.73-.39,5.77-2.1,7.18-7.29,6.91-12.96,0-.17.05-.36.16-.36.63,2.42,0,8.59-1.85,10.98s-4.68,3.82-7.67,4.19c-.31.04-2.66-.33-2.39-1.09Z"/>
          <path class="cls-1" d="M126.51,107.22c-.18.07-.25,0-.21-.18.39-.83,1.05-3.64-.45-4.59-1.12-.71-2.95-.25-3.5.95-.5,1.1-.56,2.26-1.26,3.1.05-.55,0-1.08.19-1.61l1.13-3.19c.88-2.47,3.55-6.02,6.72-4.23.06.04.26-.05.3.04.39,1.07-2.09-1.26-4.39,1.06-1,1.01-1.85,2.15-2.24,3.62,1.04-.57,1.97-.71,2.95-.33,2.09.82,1.67,3.56.75,5.36Z"/>
          <path class="cls-1" d="M122.66,90.76h-.26c.06-2.24-.32-4.5-1.13-6.6l.17-.02c.11.12.31.18.39.45l.77,2.88c.17.62.06,3.31.06,3.3Z"/>
          <path class="cls-1" d="M60.79,87.73c-.19.82-.33,1.68-.36,2.53h-.36c.15-.84.08-1.72.36-2.53.15-.34.27-.37.36,0Z"/>
          <path class="cls-1" d="M119.09,116.42c-.06.04-.17.1-.18.18h-.18l.36-1.8c.05-.16.11-.16.18,0l-.18,1.62Z"/>
          <path class="cls-1" d="M119.27,114.8h-.18c.07-.36.13-.79.36-1.08.19.39-.15.77-.18,1.08Z"/>
          <path class="cls-1" d="M119.45,113.71c-.18-.37.12-.64.21-.91.04.35,0,.64-.21.91Z"/>
          <path class="cls-1" d="M103.06,169.12c.42-.26.53-.09.34.34.3-.21.39-.11.2.21.48-.12.53-.03.22.35.44-.18.49-.13.34.32,1.61,2.12,3.66,3.84,5.73,5.6.19.16-.34.29-.43.38-.21.22-.05.84-.13,1.11-.32,1.14.08,2.46-.16,3.58-.22.98-.09,1.97-.19,2.93l-.35,3.25c-.52,4.83-.77,9.71-.89,14.58-.02.88-.1,1.85-.2,2.71-.26,2.26-2.5,4.47-3.72,6.13-1.66,1.46-3.08,3.2-4.6,4.8-.87.9-1.96,1.61-2.96,2.51-.53.48-1.66,1.11-2.37.76-1.29-.64-2.59-1.28-3.67-2.09l-4.29-3.2c-2.58-1.92-5.24-3.72-7.69-5.91l-.46-1.17c0-.12.03-.25.01-.37-.09-.58-.14-1.18-.15-1.8.04-.18.05-2.75-.23-2.89-.27-.47-.26-.76.02-.9-.07-.9-.12-1.8-.16-2.71l-.37-.11-.31-8.12c-.23-1.06-.2-2.04.11-2.93v-.19c.05-1.27-.21-2.53-.36-3.8-.06-.54.2-1.32-.14-1.81-.06-1.03.09-2.15-.41-3.07,0-.04-.02-.13,0-.17-.16-.45-.14-.88.03-1.27.1-.08.17-.24.35-.33,2.61-1.36,5.2-2.76,7.41-4.6-.16-.41.07-.59.67-.53-.14-.16-.02-.26.37-.32.03-.53.84-1.45,1.24-.76.52.49-.48,1.31-.93,1.66-2.56,2.01-5.25,3.9-8.24,5.28l.59,5.01c.56,8.37,1.04,16.56,1.45,24.59.08.47.35,1.03.74,1.33,4.28,3.23,8.64,6.37,13.02,9.47.89.63,2.06,1.33,2.97.52,3.54-3.17,6.72-6.38,9.75-10.04.77-.93,1.2-2.18,1.39-3.36.44-9.42,1.17-18.71,2.18-27.9-2.28-1.69-4.33-3.79-6.08-6.04-.09-.12-.14-.27-.19-.43s-.07-.33-.09-.5c0-.11.12-.22.2-.27.22-.46.5-.33.44.18Z"/>
          <path class="cls-1" d="M84.02,155.74c-.12.13-.24.29-.49.2-.26.43-.72.4-.76-.14-.38.29-.48.22-.51-.24-.17.05-.23,0-.18-.18-.32.36-.45.32-.53-.15-.21.3-.33.24-.24-.12-.1-.15-.38-.11-.48-.22-.38-.39-.9-.53-1.44-.79l-6.95-3.46c-.24-.12-.42-.25-.48-.45.34-.06.68.06,1.06.24l10.34,4.95c.26.13.4.39.64.38Z"/>
          <path class="cls-1" d="M44.29,183.85c-2.32.83-7.8-4.3-7.7-6.69,1.83,3.16,4.2,5.43,7.7,6.69Z"/>
          <path class="cls-1" d="M72.52,175.26c.08.06.08.12,0,.18l-.75-.9c.08-.03.16-.09.19-.18.19.29.58.49.56.9Z"/>
          <path class="cls-1" d="M72.52,175.44v-.18c.17.13.48.25.56.56-.04.29-.22,0-.31,0-.2-.02-.18-.28-.25-.38Z"/>
          <path class="cls-1" d="M104.15,170.35c-.09-.12-.27-.16-.34-.32l.02-.3c3.74-4.17,4.05-11.36.61-15.82v-.32c.07-.02.14-.11.19-.15.27,0,.4.25.6.49,2.74,3.28,2.67,8.22,1.57,12.16-.48,1.71-1.39,3.17-2.66,4.28Z"/>
          <path class="cls-1" d="M92.14,145.65c-.54-.38-1.09-7.64-.42-8.22l.42,8.22Z"/>
          <path class="cls-1" d="M81.56,155.22l.23.18c-2.78,5.2-1.38,10.83,1.83,15.47l-.05.36c-.14-.09-.38.12-.57.05-1.43-2.21-3.09-5.65-3.27-8.3-.19-2.82.17-5.55,1.6-7.89.04.06.18.1.24.12Z"/>
          <path class="cls-1" d="M75.77,177.44c-.32-.28-.32-1,.03-1.27-.16.42.16.86-.03,1.27Z"/>
          <path class="cls-1" d="M102.42,169.22c1.92,2.48,4.05,4.78,6.64,6.8l-1.04,11.41c-.3,3.26-.48,6.39-.65,9.67l-.29,5.78c-.1,1.97-.58,3.59-1.86,5.12-2.9,3.45-5.98,6.69-9.41,9.65-.53.46-1.03.81-1.76.49-.63-.28-1.3-.56-1.91-.98-4.29-2.98-8.49-5.96-12.61-9.15-.77-.6-1.15-1.24-1.19-2.17l-.5-9.4c-.3-5.77-.47-11.42-1.18-17.18l-.36-2.9c2.89-1.42,5.53-3.02,7.99-5.02.64-.52,1.28-1.03,1.56-1.71.39.42,2.57,1.79,2.42,2.03l.04.24c-2.96,2.14-5.88,4.35-8.74,6.6h-.35c-.16,1.14-.24,2.32-.02,3.44l.24.04c.32,6.8.64,13.59.97,20.39.1,1.28.35,2.27,1.36,3.13,2.45,2.07,4.86,3.95,7.44,5.87,1.21.9,4.39,3.26,5.68,3.5.25.05,2.04-1.56,2.38-1.9,2.3-2.27,4.93-5.5,6.66-8.23.32-.5.55-.97.59-1.57.26-8.54.59-17.07.99-25.62-1.87-1.75-3.73-3.52-5.46-5.41-.23-.25-.36-.57-.42-.91.82-.56,1.64-1.1,2.32-1.92.14-.16.33-.16.44-.1Z"/>
          <path class="cls-1" d="M99.95,152.87c3.27,2.32,4.99,6.25,4.4,10.3-.55,3.78-3.18,6.92-6.76,8.44-4.84,1.65-10.08-.04-12.81-4.39-2.7-4.3-1.98-9.9,1.75-13.4s9.28-3.88,13.41-.95Z"/>
          <path class="cls-1" d="M99.65,171.24c1.84,2.2,3.94,4.16,6.09,6.21.04,1.23-.06,2.32-.1,3.57l-.76,21.69c-.02.7-.14,1.29-.5,1.86-2,3.11-6.29,8.64-9.45,10.63-2.21-.92-3.98-2.25-5.86-3.61-2.56-1.85-5.01-3.7-7.35-5.78-1.03-.92-1.38-1.95-1.48-3.31l-.37-5.07-.48-11.88-.18-3.62c-.21-1.13-.15-2.3.02-3.43.24-.43.64-.73,1.09-1.06l7.08-5.15c.33-.24.53-.55.87-.65l.3.04c.31.25.25.43-.14.46-.04.47-.48.85-.96.78.15.45-.05.47-.46.34.16.32.06.33-.24.17.17.38,0,.38-.37.24.29.19.22.3-.13.22.2.3.08.38-.19.12.08.27-.06.46-.43.57l-5.5,4.14-.1.56c.14.66.05,1.18-.27,1.57.45.53.45,1.19-.02,1.98.44-.15.47,0,.17.35.48.2.38.66-.01.9.53.32.43,1.33.07,1.82.27.11.29.47.04,1.09l.03,1.6c.48-.01.51.39.09,1.23l.34.22c-.13,2.82,0,5.64.38,8.45l-.35.23c.27.62.67,1.85.13,2.35.39.52.49,1.27.14,1.82.36.94.91,1.72,1.66,2.34l-.1.4,4.52,3.15.45.74c1.11.46,2.15,1.08,3.13,1.87l.16.48.91.29c.43.36,3.15,2.07,3.48,2,.48-.09,2.43-2.24,2.9-2.79l.73-.41c.09-.68.91-1.56,1.43-2.09.23-.23.48-.46.8-.56l.03-.53c.56-.74,1.19-1.42,1.88-2.02l-.1-.42c.57-.65,1.09-1.34,1.55-2.08-.53-.24-.3-.8.08-1.12-.62-.16-.31-1.18-.01-1.6l-.29-.38c.02-.81.17-1.6.44-2.36l-.36-.17.22-9.02.37-.21c-.43-.53-.34-1.92.11-2.34-.31-.31-.5-.8.02-.92-.41-.57-.4-.85.04-.84-.38-.29-.45-.75.05-.95-.28-.37-.26-.63.05-.76-.38-.45-.36-.69.05-.71-.35-.38-.34-.61.03-.69-.31-.41-.32-1.2.17-1.46-.32-.27-.43-.41.04-.52.14-.57.1-1.09-.11-1.57-1.65-1.23-3.34-2.55-4.51-4.25l-.11-.49c-.26.24-.36.13-.18-.18-.27.17-.44.16-.36-.18-.45.09-.48,0-.18-.36-.38.16-.5-.03-.36-.54-.26.23-.37.15-.22-.16-.11-.06-.21-.14-.32-.2.12-.07.18-.25.36-.3s.3.11.42.25Z"/>
          <path class="cls-1" d="M82.78,155.79l.13.49c-1.31,2.45-1.92,5.48-.86,8.13-.23-1.59-.18-3.14.14-4.66l.46-.2v3.08c-.03,2.71,1.43,5.08,3.2,6.99-.23-.47-.65.76-1.24.76-.24.15-.5.23-.72.01-1.3-1.28-2.87-5.56-3.13-7.41-.38-2.58.23-5.3,1.51-7.43.22-.04.35.17.51.24Z"/>
          <path class="cls-1" d="M99.41,171.65c.09.11.19.31.14.43-.26.62-5.58,2.22-6.57,2.32-1.96.19-3.49-.16-5.24-1.01-.2-.1-.3-.21-.27-.46.19-.36.54-.68.96-.78l.26-.14c1.41.57,2.89.8,4.4.85,2.12,0,4.22-.36,6.1-1.38.08.05.14.12.22.16Z"/>
          <path class="cls-1" d="M83.53,155.94c.12.07.2.19.39.32-.69,1.06-.83,2.22-1.27,3.3-.96,2.34.22,4.53-.47,5.95-1.83-2.96-.98-7.09.59-9.71.23.1.54.02.76.14Z"/>
          <path class="cls-1" d="M93.1,172.87c-1.72,0-3.02.12-4.67-.71.07-.15.11-.3.14-.46.19.02.44.04.67.16,1.26.66,2.56.8,3.85,1.01Z"/>
          <path class="cls-1" d="M103.06,169.12c-.1-.11-.32-.09-.44-.18-.01-.28.13-.5.33-.78,2.7-3.79,2.83-8.86.27-12.74-.22-.34-.43-.58-.44-.92.27-.11.56-.19.81-.35.12,0,.23.03.29.1,2.13,2.4,2.53,6.88,1.87,9.91-.3,1.37-1.27,4.26-2.45,5.05-.04.03-.14-.02-.25-.1Z"/>
          <path class="cls-1" d="M103.91,153.97c2.53,2.61,2.96,6.76,2.23,10.25-.39,1.87-1.18,4.15-2.74,5.25-.15-.09-.23-.22-.34-.34,1.66-1.19,2.61-4.76,2.79-6.9.25-2.87-.62-5.81-2.26-8.07l.31-.19Z"/>
          <path class="cls-1" d="M104.45,153.58c1.5,1.98,2.48,4.29,2.55,6.87.08,3.43-.7,7.27-3.18,9.57-.05-.12-.16-.23-.22-.35,1.82-2.34,2.81-5.13,2.86-8.16s-.8-5.31-2.36-7.74c.1-.11.22-.16.35-.2Z"/>
          <path class="cls-1" d="M103.6,169.67c-.03-.07-.13-.17-.2-.21,2.65-2.79,3.47-7.81,2.47-11.49-.41-1.52-1.11-2.84-1.97-4.01.07-.04.14-.13.19-.19,2.07,2.44,2.86,5.82,2.43,9.06-.34,2.59-1.09,5.1-2.94,6.83Z"/>
          <path class="cls-1" d="M102.75,127.17c-3.28.29-5.12-1.61-11.39-.91l-5.47.62c-1.28.14-2.48-.05-3.65-.86-.56-.38-.55-1.58-.51-2.39.26-5.55,4.93-9.67,10.47-9.55,2.5.05,4.84.59,7.11,1.52,2.6,1.07,4.44,3.01,5.07,5.77.42,1.84,1.2,5.55-1.63,5.8Z"/>
          <path class="cls-1" d="M90.49,108.79l.98,2.41c.64,1.57,3.3,2.06,4.85,1.03,1.38-.92,1.63-2.63,1.72-4.16.63.77.2,1.77-.03,2.52-.64,2.12-2.64,3.05-4.72,2.38-1.79-.58-3.08-2.13-2.81-4.18Z"/>
          <path class="cls-1" d="M81.74,81.03c1.22.15,2.14.49,2.75,1.56,3.04.17,5.31.37,8.23.11.02.1.06.19.12.27-1.3.03-2.58.26-3.89.22-2.64-.08-5.31-.11-8.04.12-.78.07-1.61-.11-2.21.3-.05-.02-.16-.05-.21-.05l-8.62.6c-2.49.17-4.88.32-7.3.97-1.57.42-1.53,1.51-1.78,2.58h-.36c.62-1.78-.42-1.39,1.46-2.75.36.11.6-.21.87-.3,1.23-.38,2.53-.53,3.88-.64l7.69-.64c.06-.34.43-.4,1.1-.17l.26-.36,7.58-.58-2.42-.68-.15-.41c.03-.31.38-.37,1.04-.17Z"/>
          <path class="cls-1" d="M81.74,81.03c-.34-.04-.73.04-1.04.17l-.42.26c-4.49-.89-9.76-1.46-13.97.69,1.61-.34,8.19-.61,8.98.75.06.1.1.21.13.33-.37-.02-.73.14-1.1.17-2.35-1.29-8.27-.57-11.02.25,2.84-3.56,7.09-4.34,11.39-3.92,2.45.24,4.83.54,7.05,1.31Z"/>
          <path class="cls-1" d="M116.56,82.67c-.36,0-.79-.18-1.13-.17l-2.01-.8c-4.19-1.54-8.54-.8-12.81,0l-.47-.28c-.16-.28-.61-.23-.9-.21,4.92-1.66,13.26-2.68,17.33,1.46Z"/>
          <path class="cls-1" d="M115.43,82.5c-1.4.04-2.79-.09-4.28-.12l-7.01-.11c-1.23-.02-2.41-.13-3.65-.11-1.11.02-2.12.28-3.28.07.98-.34,1.94-.62,2.93-.81,4.5-.88,11.49-2.1,15.3,1.08Z"/>
          <path class="cls-1" d="M79.89,85.74c.22-.57.42-1.22.89-1.62.49-.22-.49,1.4-.89,1.62Z"/>
          <path class="cls-1" d="M126.51,107.22c-.13.26-.26.53-.5.75-.29-.51.17-.67.3-.93.06.07.13.13.21.18Z"/>
          <path class="cls-1" d="M110,104.76c-.19-1.07.59-1.74.96-2.58.32-.72.45-1.49,1.16-2l-2.13,4.58Z"/>
          <path class="cls-1" d="M112.06,99.99c.34-1.08.86-1.94,1.42-2.9-.27,1.06-.59,2.07-1.42,2.9Z"/>
          <path class="cls-1" d="M115.89,92.08c-.09-.64.23-1.12.66-1.5-.04.65-.45.99-.66,1.5Z"/>
          <path class="cls-1" d="M113.5,96.95c0-.51.34-.73.47-1.13.16.51-.08.89-.47,1.13Z"/>
          <path class="cls-1" d="M114.39,95.07c0-.27.19-.45.28-.68.19.31.16.6-.28.68Z"/>
          <path class="cls-1" d="M115.21,93.14c.33-.29-.34,1.39-.29.44,0-.2.08-.27.29-.44Z"/>
          <path class="cls-1" d="M82.09,155.38l-.02.33c-2.69,4.94-1.22,10.91,2.17,15-.12.32-.45.35-.67.53-3.08-4.68-4.81-9.77-2.21-15.29.13-.27.22-.49.2-.73.18.03.37.04.53.15Z"/>
          <path class="cls-1" d="M82.27,155.56l-1.03,2.94c-1.39,3.98.65,8.46,2.8,11.76.12.19.46.11.57.13-.02.17-.33.2-.37.32-.32.07-.56-.17-.75-.47-3.09-4.88-4.23-9.63-1.4-14.85.07.05.12.13.18.18Z"/>
          <path class="cls-1" d="M102.26,163.78c-.95,4.45-4.87,7.39-9.21,7.23-4.35-.15-7.98-3.43-8.61-7.84-.41-2.88.51-5.7,2.45-7.75s4.69-3.11,7.56-2.77c5.4.64,8.97,5.71,7.82,11.13Z"/>
          <path class="cls-1" d="M97.1,174.55c.25.06.2.18-.16.35.25.25.13.35-.19.18l-.09.4-1.59.47c3.01.38,8.09,2.33,9.9,4.82l.05.44c.04.2-.04.48-.03.69l-.19.16c-3.12-2.64-6.36-4.52-10.52-4.9-2.83-.26-5.28.1-7.93,1.16s-4.27,2.5-6.21,4.5c-.1.11-.23.1-.37.02-.05-.66-.03-1.32.02-1.98,1.48-2.36,4.75-4.02,7.41-4.87,1.13.02.94-.29-.54-.94-.63-.31-.82-.66-.57-1.04.06-.02.14-.08.19-.12,3.32,2.07,7.07,2.41,10.56.5l.26.14Z"/>
          <path class="cls-1" d="M104.88,183.37c-.02.31.03.68-.05.95-.04.18-.12.27-.28.25-6.47-7.85-19.05-7.37-24.17,1.36-.11.11-.25.1-.39-.01.03-.59-.24-1.21-.07-1.82.04-.29.17-.45.36-.66,7.01-7.62,16.9-7.71,24.39-.69.17.16.22.39.22.62Z"/>
          <path class="cls-1" d="M79.78,180.87c.04-.68-.28-1.71.1-2.36l5.57-4.21c.22-.17.44-.22.63-.28.41.88,2.66,1.53,2.49,1.84-.05.09-.21.3-.35.31-1.15.09-2.05.62-3.08,1.04-1.7.69-3.14,1.69-4.46,2.97-.29.28-.55.63-.91.68Z"/>
          <path class="cls-1" d="M104.99,181.91c0,.19-.13.54-.05.71-.13.09-.26.13-.37.04-4.04-3.28-6.86-5.07-12.43-5.03-4.46.03-9.06,2.46-11.85,5.87l-.34-.3c-.04-.11-.16-.22-.17-.35.4-.65,2.62-2.63,3.25-3.03,2.13-1.37,2.69-1.66,5.11-2.44.93-.3,1.91-.21,2.81-.66,1.04.39,2.02.1,3.07.12.37,0,.82.21,1.21.27l1.48.21c.97.14,1.81.64,2.79.75.77.73,1.8.98,2.57,1.58l2.93,2.28Z"/>
          <path class="cls-1" d="M104.93,182.61c.14.31-.03.49-.05.76-2.2-2.25-4.8-4.11-7.94-4.89-2.23-.55-4.21-.81-6.45-.44-3.84.64-7.27,2.3-9.78,5.43-.23.28-.46.61-.8.63.07-.27-.13-.62.01-.9.44.01.57-.45.89-.74.78-.7,1.49-1.52,2.39-2.06.49-.29.92-.69,1.42-.94,1.39-.72,2.84-1.26,4.33-1.72.33-.1.81-.08,1.18-.16,3.5-.73,9,.42,11.95,2.78.73.58,2.12,1.52,2.84,2.25Z"/>
          <path class="cls-1" d="M100.5,172.91c.14.18.2.37.17.56l-1.29.9c2.15.8,4.41,1.87,5.88,3.6l-.03,1.26c-.05.13-.04.38-.04.52l-.38.22c-2.33-1.9-4.88-3.24-7.82-4.06-.38-.25-.56-.44-.23-.83.04-.08.14-.11.19-.18.66-.43,1.37-.86,2.08-1.24,0-.39.88-.86,1.3-.93.05.07.12.12.18.18Z"/>
          <path class="cls-1" d="M96.75,175.08c.13.47.55.63,1.05.76,2.09.56,4.09,1.49,5.81,2.78.55.41.99.89,1.57,1.13,0,.48.09,1.05-.17,1.46-.39-.15-.61-.55-.93-.88-.93-.95-2.15-1.42-3.23-2.17-.9-.63-1.96-.78-2.98-1.2s-2.19-.73-3.28-.65c-.22-.26.1-.65.44-.75l1.72-.5Z"/>
          <path class="cls-1" d="M105.22,179.23c-.1-.41.05-.93-.17-1.36-.23-.46-.97-.47-1.25-.81-.39-.47-.75-.59-1.25-.83-1.17-.56-2.25-1.26-3.63-1.6-.01-.97,1.77-1.12,1.57-1.71,1.44,1.66,3.04,3.14,4.75,4.64.31.42.15,1.29-.02,1.68Z"/>
          <path class="cls-1" d="M99.78,172.19c-.02.14-.05.25-.13.28-3.47,1.75-8.98,3.91-12.49,1.07-.07-.06-.12-.16-.15-.27.11-.16.29-.28.46-.34,2.58,1.66,6,1.6,8.89.4.85-.36,1.58-.75,2.45-1.05.35-.12.68-.26.61-.63.22.11.28.33.36.54Z"/>
          <path class="cls-1" d="M100.32,172.73c-.34.44-.93.53-1.3.93-.56.32-1.13.64-1.69.96l-.23-.08c-1.21.48-2.37,1.09-3.79,1.29-2.47.36-5.11-.42-7.03-1.94.06-.05.07-.17.13-.22l.31-.03c2.74,2.03,6.16,1.9,9.28.89,1.34-.61,2.66-1.27,3.97-1.99.1.06.28.08.36.18Z"/>
          <path class="cls-1" d="M99.96,172.55c-1.34.86-2.85,1.44-4.33,1.99-2.71,1.13-6.38,1.01-8.83-.82-.05-.04-.05-.14-.03-.27.07-.05.19-.1.24-.17,4.56,2.69,8.48,1.13,12.76-1.08.04.11.18.23.18.36Z"/>
          <path class="cls-1" d="M95.62,174.54c.16-.07.28-.07.36,0-3.06,1.51-6.82,1.12-9.58-.85.11-.1.25-.15.37-.24,3.48,2.86,8.13,1.09,8.85,1.09Z"/>
          <path class="cls-1" d="M103.22,126.45c-.62-3.46-6.05-4.47-8.93-4.73-3.7-.33-9.71.21-11.79,3.8-.42-2.92.39-5.74,2.31-7.61,1.51,1.46,10.98,1.34,12.62,1.19l2.44-.22c.82-.08,1.57-.22,2.37-.57,1.28.99,3.19,7.59.98,8.14Z"/>
          <path class="cls-1" d="M102.72,126.5c-3.28.33-5.34-1.24-9.09-1.01-2.48.15-4.84.5-7.28.77-1.23.14-2.37.09-3.57-.52.59-.59,1.1-1.29,1.86-1.72,2.99-1.68,6.33-2.07,9.72-1.72,2.58.27,7.67,1.13,8.36,4.19Z"/>
          <path class="cls-1" d="M101.89,118.01c-3.18.7-10.56.77-13.24.35-1.22-.19-2.42-.2-3.59-.82,2.01-2.01,4.55-2.88,7.3-2.82,2.91.06,7.38,1.06,9.53,3.3Z"/>
          <path class="cls-1" d="M80.7,81.2l2.51.68c.37.1.67.42.68.79-2.08-.13-7.05.63-8.46.55-3.33-1.62-7-.97-10.64-.47.71-.53,1.38-.99,2.15-1.34,3.68-1.69,10.52-1.1,13.77-.22Z"/>
          <path class="cls-1" d="M96.44,153.77c4.01,1.57,6.1,5.76,5.26,9.79s-4.37,7-8.59,6.86c-3.25-.1-5.98-2.09-7.27-4.74-1.5-3.07-1.13-6.54.92-9.18,2.28-2.94,6.11-4.14,9.69-2.74Z"/>
          <path class="cls-1" d="M99.02,173.67c-.55.61-1.28,1.08-2.08,1.24.08-.1.11-.24.16-.35.65-.26,1.19-.92,1.92-.88Z"/>
          <path class="cls-1" d="M99.96,172.55c-1.06,1.05-2.67,1.35-3.97,1.99h-.36l4.33-1.99Z"/>
          <path class="cls-1" d="M94.54,157.76c.91-.14,1.99-.21,2.89,0,.73.08,1.89-.03,2.18.67.57,2.04.15,4.22-.03,6.3-.06.69-.54.93-1.15.93l-9.52-.03c-.55,0-.85-.51-.9-.99-.21-1.9-.14-3.72-.15-5.64,0-.66.38-1.24,1.09-1.24.89-.01,1.77-.07,2.65.05,1.03.14,2,.19,2.94-.05Z"/>
          <path class="cls-1" d="M97.43,157.77c-.95-.11-1.93.03-2.89,0-.02-.15.16-.19.35-.19h2.18c.2,0,.38.05.35.2Z"/>
          <path class="cls-1" d="M98.94,164.81c-.06.3-.65.3-.89.3l-9.39-.02c-.3-2.11-.29-4.13-.22-6.22,0-.25.22-.41.33-.5.14-.11.41.03.61.03l2.69-.02c2.16-.01,4.32-.19,6.48-.02.48.04.75.35.75.84.02,1.88,0,3.69-.36,5.61Z"/>
          <path class="cls-1" d="M91.21,163.91c-.77.09-1.43-.23-1.49-.98-.08-.93-.03-2.11.32-2.99.61-.43,1.62-.27,2.39-.22.15,1.29.22,2.51.05,3.79-.05.43-.84.36-1.27.41Z"/>
          <path class="cls-1" d="M94.52,163.54l-.04-1.52c-.23-.2-.22-.31.03-.32-.14-.39-.03-1.23.23-1.58.84-.38,1.98-.3,2.83-.07-.09,1.33.01,2.56-.26,3.74-.55.48-1.7.43-2.37.31-.4-.07-.33-.41-.42-.55Z"/>
          <path class="cls-1" d="M94.51,161.7c.22.61.06,1.2.01,1.85-.31-.45-.11-1.01-.16-1.61-.51.12-1.03.27-1.56.04.21-.77,1.3-.08,1.71-.28Z"/>
          <path class="cls-1" d="M90.4,163.11c-.46-.95.05-2.01.05-2.94.6-.14,1.01-.1,1.58-.16.06,1.12.09,2.13-.01,3.28-.43.05-1.38.29-1.61-.18Z"/>
          <path class="cls-1" d="M96.9,163.45c-.64.35-1.25.27-1.95.15-.09-1.14-.15-2.26.22-3.41l1.9.09c.03,1.08-.01,2.01-.17,3.17Z"/>
        </g>
      </g>
    </g>
  </g>
</svg>