<?xml version="1.0" encoding="UTF-8"?>
<svg id="Layer_2" data-name="Layer 2" xmlns="http://www.w3.org/2000/svg" viewBox="0 0 578.2 99.52">
  <defs>
    <style>
      .cls-1 {
        fill: #35547f;
      }
    </style>
  </defs>
  <g id="Layer_47" data-name="Layer 47">
    <g>
      <path class="cls-1" d="M131.83,27.99h-3.57l-18.18,49.22c-2.7,7.13-4.17,10.7-8.17,14.96v.17h13.39v-.17c-1.91-2.78-4.09-8.35-.35-18.44l1.65-4.52h20.96l3.04,8.35c2.52,6.96,2.26,12.18.61,14.61v.17h17.05v-.17c-3.13-3.22-5.04-6.26-8-14.18l-18.44-50.01ZM117.83,65.82l9.22-25.05,9.22,25.05h-18.44Z"/>
      <path class="cls-1" d="M174.8,92.18c-2.96-5.22-3.65-8.09-3.65-15.05v-33.22c0-6.96.7-9.83,3.57-15.05v-.17h-16.26v.17c2.96,5.22,3.57,8.09,3.57,15.05v33.22c0,6.96-.61,9.83-3.57,15.05v.17h16.26l.09-.17Z"/>
      <path class="cls-1" d="M236.89,60.08c0-20.7-12.87-31.74-34-31.74-11.57,0-13.05.35-24,.35v.17c2.87,4.7,3.57,7.22,3.57,13.39v36.53c0,6.17-.7,8.7-3.57,13.39v.17h23.74c21.92,0,34.27-11.74,34.27-32.27ZM191.58,89.13V31.73h10.52c16.26,0,24.35,8.44,24.35,28.35,0,18.18-6.7,28.44-24.53,28.87l-10.35.17Z"/>
      <path class="cls-1" d="M285.29,74.7l-1.48-.7c-4.7,6.78-9.91,14.52-16.44,14.7l-17.31.61v-27.31h8.44c3.74,0,7.31,5.65,9.31,8.7h1.57v-21.13h-1.57c-2,3.31-5.57,8.96-9.13,8.96h-8.61v-26.79l16.52.52c3.39.17,8.18,7.74,12.44,12.35l1.48-.7-3.39-15.22h-39.74v.17c2.26,5.13,3.48,8.35,3.48,14.09v35.14c0,5.65-1.22,8.96-3.48,14.09v.17h44.09l3.83-17.66Z"/>
      <path class="cls-1" d="M292.3,39.82v35.66c0,7.65-.96,10.78-5.22,16.7v.17h14.96v-.17c-4.96-5.91-6-9.05-6-16.7l-.43-36.44,39.92,53.57,3.65-.26v-46.79c0-7.65,1.04-10.78,5.22-16.7v-.17h-14.18v.17c4.26,5.91,5.31,9.04,5.39,16.7l.26,31.57-36.7-48.44h-13.74v.17c4.35,3.39,6.17,6,6.87,10.96Z"/>
    </g>
    <g>
      <path class="cls-1" d="M427.42,24.02c3.99-10.79,6.52-16.24,12.52-22.77v-.27h-20.37v.27c3.2,4.53,5.86,12.92.27,28.23l-18.51,50.33-20.77-56.19c-3.73-10.39-2.8-18.38,0-22.37v-.27h-26.76v.27c4.66,4.93,7.46,9.59,11.98,21.7l28.23,76.57h5.46l27.96-75.5Z"/>
      <path class="cls-1" d="M462.39,95.05h17.76v-.18c-3.26-3.35-5.26-6.52-8.34-14.77l-19.21-52.1h-3.72l-18.94,51.29c-2.81,7.43-4.35,11.15-8.52,15.59v.18h13.95v-.18c-1.99-2.9-4.26-8.7-.36-19.21l1.72-4.71h21.84l3.17,8.7c2.63,7.25,2.36,12.69.63,15.22v.18ZM438.02,67.41l9.61-26.1,9.61,26.1h-19.21Z"/>
      <path class="cls-1" d="M527.91,76.65l-1.54-.63c-4.8,7.7-10.33,15.13-17.4,15.4l-15.22.63v-47.48c0-7.25.63-10.24,3.71-15.68v-.18h-17.03v.18c2.99,5.44,3.72,8.43,3.72,15.68v34.07c0,7.43-.72,10.6-3.81,16.22v.18h43.4l4.17-18.39Z"/>
      <path class="cls-1" d="M578.2,76.65l-1.54-.72c-4.89,7.07-10.33,15.13-17.13,15.31l-18.03.63v-28.45h8.79c3.9,0,7.61,5.89,9.7,9.06h1.63v-22.02h-1.63c-2.08,3.44-5.8,9.33-9.51,9.33h-8.97v-27.91l17.22.54c3.53.18,8.52,8.07,12.96,12.87l1.54-.72-3.53-15.86h-41.41v.18c2.36,5.35,3.62,8.7,3.62,14.68v36.61c0,5.89-1.27,9.33-3.62,14.68v.18h45.94l3.99-18.39Z"/>
    </g>
    <path class="cls-1" d="M102.97,66.08c-3.19-2.68-7.21-3.89-11.34-3.5-6.36.59-12.2,4.24-16.91,8.67-.43.41-.91.69-1.13,1.25-.22.03-.47.39-.59.58-.21.02-.4.15-.44.35l-.02.13c-.08-.03-.2-.02-.23.06l-.07.17-.32.43c-.09-.03-.19,0-.24.07-.04.06-.05.13-.06.18l-.02.09c-.08-.02-.19,0-.23.07l-.08.16-3.81,4.53c-1.68,2.05-3.43,3.91-5.36,5.69-1.73,1.6-3.53,2.9-5.64,3.89-3.61,1.69-7.44,2.55-11.37,2.31-.76-.05-1.48,0-2.1-.38,5.27-.21,10.29-1.93,14.47-5.21,1.51-1.19,2.76-2.51,3.93-3.95,1.58-1.95,3.01-4.27,4.14-6.63l.75-1.57c.24-.5.42-.95.64-1.45l.9-2.04.55-1.24,1.64-3.73,1.05-2.07.55-1.07c.25-.49.52-.79.8-1.22,2.93-4.46,6.07-7.82,10.96-9.84.1-.04-.07-.3-.14-.26-.05.03-.24.06-.33.05-3.26-.65-6.57-.72-9.79.1-2.63.67-5.02,1.62-7.23,3.26-3.25,2.4-5.74,6.16-7.03,9.98-.31,0-.28.38-.33.63l-.1.48s-.16-.04-.18.03c-.88,2.42-1.8,4.81-3.32,6.86-1.42,1.92-3.18,3.36-5.3,4.27-.19.08-.29.15-.35.34l-.07-.12c-1.82.66-3.63,1.14-5.65,1.32,3.27-2.88,4.35-7.33,5.44-11.47l.98-3.16c1.29-3.54,2.96-6.59,6.06-8.81-4.16-.36-9.38,1.86-11.71,5.27-.2.3-.5.51-.59.83-.89.95-1.49,2.23-2.06,3.51l-1.88,4.26-.69,1c-1.97,3.13-5.26,4.66-8.76,4.35-1.24-.11-2.43-.34-3.56-.96-1.48-.35-2.64-1.22-3.83-2.15-2.27-1.78-3.97-3.99-5.3-6.58-1.72-4.94-2.67-10.25-2.67-15.72C15.03,23.36,24.88,5.05,48.49,5.05c14.29,0,22.35,6.85,33.43,23.68.32.49.92.71,1.48.55l.13-.04c.62-.18,1.02-.79.94-1.43l-2.66-20.97c-.06-.48-.38-.89-.84-1.07-6.7-2.6-18.18-5.77-30.83-5.77C20.58,0,0,21.22,0,48.12s20.77,51.3,49.94,51.3h0c3.01.25,6.03.06,9.02-.53.33-.03.59-.05.89-.11,2.67-.59,5.21-1.35,7.74-2.46,2.83-1.24,5.51-2.59,8.03-4.44l6.37-4.66,3.09-2.33c-1.91.17-3.52.71-5.22,1.23l-2.86.87c-.48.14-1.04.11-1.48.48-.38-.23-3.26,1.03-5.12,1.11l.55-.34,2.93-2.32,5.27-4.73,2.94-2.48c1-.85,1.97-1.58,3.07-2.3,5.25-3.44,11.68-6.01,17.86-4.83,2.29.44,4.24,1.44,6.25,2.68-.71-2.01-1.93-3.42-3.09-4.9-.98-1.22-2.03-2.24-3.23-3.25Z"/>
  </g>
</svg>
