<svg viewBox="0 0 260 260" xmlns="http://www.w3.org/2000/svg">
  <!-- Puzzle piece shape with interlocking tabs - classic jigsaw style -->
  <path d="M130,0 L130,30 Q130,40 120,40 L100,40 Q90,40 90,50 L90,70 Q90,80 100,80 L120,80 Q130,80 130,90 L130,110 Q130,120 140,120 L160,120 Q170,120 170,110 L170,90 Q170,80 180,80 L200,80 Q210,80 210,70 L210,50 Q210,40 200,40 L180,40 Q170,40 170,30 L170,0 L260,0 L260,130 L230,130 Q220,130 220,140 L220,160 Q220,170 210,170 L190,170 Q180,170 180,180 L180,200 Q180,210 190,210 L210,210 Q220,210 220,220 L220,240 Q220,250 210,250 L190,250 Q180,250 180,260 L0,260 L0,130 L30,130 Q40,130 40,120 L40,100 Q40,90 30,90 L10,90 Q0,90 0,100 L0,120 Q0,130 10,130 L30,130 Q40,130 40,140 L40,160 Q40,170 50,170 L70,170 Q80,170 80,160 L80,140 Q80,130 70,130 L50,130 Q40,130 40,120 L40,100 Q40,90 50,90 L70,90 Q80,90 80,80 L80,60 Q80,50 70,50 L50,50 Q40,50 40,40 L40,20 Q40,10 50,10 L70,10 Q80,10 80,0 L130,0 Z" fill="black"/>
</svg>

