<svg viewBox="0 0 600 400" xmlns="http://www.w3.org/2000/svg">
  <defs>
    <clipPath id="waterRipple">
      <!-- Smooth water ripple waves -->
      <path d="M0,200 Q75,170 150,185 T300,200 T450,200 T600,200 L600,400 Q525,370 450,385 T300,400 T150,400 T0,400 Z M0,200 Q50,190 100,195 T200,200 T300,200 T400,200 T500,200 T600,200 L600,400 Q550,390 500,395 T400,400 T300,400 T200,400 T100,400 T0,400 Z M0,200 Q25,195 50,197.5 T100,200 T150,200 T200,200 T250,200 T300,200 T350,200 T400,200 T450,200 T500,200 T550,200 T600,200 L600,400 Q575,395 550,397.5 T500,400 T450,400 T400,400 T350,400 T300,400 T250,400 T200,400 T150,400 T100,400 T50,400 T0,400 Z"/>
    </clipPath>
  </defs>
  <rect width="600" height="400" clip-path="url(#waterRipple)"/>
</svg>
