<svg viewBox="0 0 400 400" xmlns="http://www.w3.org/2000/svg">
  <defs>
    <clipPath id="wavyCircle">
      <!-- Circular path with smooth wavy edges -->
      <path d="M200,0 Q205,8 208,20 Q211,32 212,50 Q213,68 213.5,100 Q214,132 213.5,150 Q213,168 212,180 Q211,192 208,200 Q205,208 200,210 Q195,208 192,200 Q189,192 188,180 Q187,168 186.5,150 Q186,132 186.5,100 Q187,68 188,50 Q189,32 192,20 Q195,8 200,0 Z" transform="rotate(0 200 200)"/>
      <path d="M200,0 Q205,8 208,20 Q211,32 212,50 Q213,68 213.5,100 Q214,132 213.5,150 Q213,168 212,180 Q211,192 208,200 Q205,208 200,210 Q195,208 192,200 Q189,192 188,180 Q187,168 186.5,150 Q186,132 186.5,100 Q187,68 188,50 Q189,32 192,20 Q195,8 200,0 Z" transform="rotate(30 200 200)"/>
      <path d="M200,0 Q205,8 208,20 Q211,32 212,50 Q213,68 213.5,100 Q214,132 213.5,150 Q213,168 212,180 Q211,192 208,200 Q205,208 200,210 Q195,208 192,200 Q189,192 188,180 Q187,168 186.5,150 Q186,132 186.5,100 Q187,68 188,50 Q189,32 192,20 Q195,8 200,0 Z" transform="rotate(60 200 200)"/>
      <path d="M200,0 Q205,8 208,20 Q211,32 212,50 Q213,68 213.5,100 Q214,132 213.5,150 Q213,168 212,180 Q211,192 208,200 Q205,208 200,210 Q195,208 192,200 Q189,192 188,180 Q187,168 186.5,150 Q186,132 186.5,100 Q187,68 188,50 Q189,32 192,20 Q195,8 200,0 Z" transform="rotate(90 200 200)"/>
      <path d="M200,0 Q205,8 208,20 Q211,32 212,50 Q213,68 213.5,100 Q214,132 213.5,150 Q213,168 212,180 Q211,192 208,200 Q205,208 200,210 Q195,208 192,200 Q189,192 188,180 Q187,168 186.5,150 Q186,132 186.5,100 Q187,68 188,50 Q189,32 192,20 Q195,8 200,0 Z" transform="rotate(120 200 200)"/>
      <path d="M200,0 Q205,8 208,20 Q211,32 212,50 Q213,68 213.5,100 Q214,132 213.5,150 Q213,168 212,180 Q211,192 208,200 Q205,208 200,210 Q195,208 192,200 Q189,192 188,180 Q187,168 186.5,150 Q186,132 186.5,100 Q187,68 188,50 Q189,32 192,20 Q195,8 200,0 Z" transform="rotate(150 200 200)"/>
      <path d="M200,0 Q205,8 208,20 Q211,32 212,50 Q213,68 213.5,100 Q214,132 213.5,150 Q213,168 212,180 Q211,192 208,200 Q205,208 200,210 Q195,208 192,200 Q189,192 188,180 Q187,168 186.5,150 Q186,132 186.5,100 Q187,68 188,50 Q189,32 192,20 Q195,8 200,0 Z" transform="rotate(180 200 200)"/>
      <path d="M200,0 Q205,8 208,20 Q211,32 212,50 Q213,68 213.5,100 Q214,132 213.5,150 Q213,168 212,180 Q211,192 208,200 Q205,208 200,210 Q195,208 192,200 Q189,192 188,180 Q187,168 186.5,150 Q186,132 186.5,100 Q187,68 188,50 Q189,32 192,20 Q195,8 200,0 Z" transform="rotate(210 200 200)"/>
      <path d="M200,0 Q205,8 208,20 Q211,32 212,50 Q213,68 213.5,100 Q214,132 213.5,150 Q213,168 212,180 Q211,192 208,200 Q205,208 200,210 Q195,208 192,200 Q189,192 188,180 Q187,168 186.5,150 Q186,132 186.5,100 Q187,68 188,50 Q189,32 192,20 Q195,8 200,0 Z" transform="rotate(240 200 200)"/>
      <path d="M200,0 Q205,8 208,20 Q211,32 212,50 Q213,68 213.5,100 Q214,132 213.5,150 Q213,168 212,180 Q211,192 208,200 Q205,208 200,210 Q195,208 192,200 Q189,192 188,180 Q187,168 186.5,150 Q186,132 186.5,100 Q187,68 188,50 Q189,32 192,20 Q195,8 200,0 Z" transform="rotate(270 200 200)"/>
      <path d="M200,0 Q205,8 208,20 Q211,32 212,50 Q213,68 213.5,100 Q214,132 213.5,150 Q213,168 212,180 Q211,192 208,200 Q205,208 200,210 Q195,208 192,200 Q189,192 188,180 Q187,168 186.5,150 Q186,132 186.5,100 Q187,68 188,50 Q189,32 192,20 Q195,8 200,0 Z" transform="rotate(300 200 200)"/>
      <path d="M200,0 Q205,8 208,20 Q211,32 212,50 Q213,68 213.5,100 Q214,132 213.5,150 Q213,168 212,180 Q211,192 208,200 Q205,208 200,210 Q195,208 192,200 Q189,192 188,180 Q187,168 186.5,150 Q186,132 186.5,100 Q187,68 188,50 Q189,32 192,20 Q195,8 200,0 Z" transform="rotate(330 200 200)"/>
      <circle cx="200" cy="200" r="200"/>
    </clipPath>
  </defs>
  <circle cx="200" cy="200" r="200" clip-path="url(#wavyCircle)" fill="black"/>
</svg>
