<?xml version="1.0" encoding="UTF-8"?>
<svg id="Layer_2" data-name="Layer 2" xmlns="http://www.w3.org/2000/svg" viewBox="0 0 435.95 435.95">
  <defs>
    <style>
      .cls-1 {
        fill: #121f37;
      }

      .cls-2 {
        fill: #f0ce6e;
      }
    </style>
  </defs>
  <g id="B4_Chat_Icon.png">
    <g>
      <rect class="cls-1" width="435.95" height="435.95" rx="53.9" ry="53.9"/>
      <path class="cls-2" d="M394.13,268.31c-9.83-8.28-22.23-11.99-34.98-10.8-19.61,1.83-37.63,13.09-52.14,26.73-1.34,1.26-2.81,2.13-3.5,3.86-.67.09-1.46,1.2-1.83,1.79-.66.08-1.23.45-1.34,1.09l-.07.4c-.24-.11-.62-.06-.71.17l-.21.53-.98,1.33c-.27-.09-.6,0-.74.2-.12.17-.15.39-.18.56l-.05.28c-.25-.08-.59,0-.69.23l-.24.51-11.76,13.97c-5.17,6.31-10.59,12.06-16.54,17.55-5.34,4.92-10.89,8.95-17.39,12-11.13,5.23-22.95,7.85-35.06,7.12-2.34-.14-4.56,0-6.46-1.18,16.25-.65,31.73-5.95,44.62-16.08,4.67-3.67,8.5-7.73,12.11-12.19,4.87-6.02,9.29-13.18,12.78-20.46l2.32-4.85c.73-1.53,1.29-2.93,1.96-4.47l2.76-6.29,1.7-3.82,5.07-11.5,3.25-6.37,1.71-3.31c.79-1.52,1.61-2.44,2.47-3.76,9.03-13.77,18.71-24.13,33.79-30.34.3-.12-.21-.92-.43-.79-.17.1-.74.2-1.03.14-10.06-2-20.28-2.21-30.2.3-8.12,2.06-15.47,4.99-22.29,10.05-10.01,7.42-17.69,18.99-21.67,30.78-.95.01-.87,1.18-1.03,1.95l-.31,1.49c-.07-.09-.48-.13-.56.1-2.72,7.47-5.56,14.82-10.24,21.16-4.38,5.93-9.81,10.35-16.34,13.16-.59.25-.9.47-1.07,1.05l-.22-.38c-5.6,2.04-11.21,3.51-17.41,4.07,10.09-8.87,13.43-22.61,16.79-35.38l3.03-9.76c3.98-10.92,9.13-20.33,18.69-27.18-12.82-1.12-28.93,5.73-36.11,16.25-.62.91-1.53,1.57-1.83,2.56-2.74,2.93-4.6,6.89-6.34,10.83l-5.8,13.15-2.13,3.07c-6.07,9.65-16.22,14.38-27.02,13.42-3.84-.34-7.48-1.06-10.97-2.95-4.58-1.07-8.15-3.75-11.82-6.63-7.02-5.5-12.25-12.31-16.34-20.3-5.3-15.25-8.23-31.61-8.23-48.47,0-76.34,30.38-132.82,103.22-132.82,44.08,0,68.92,21.12,103.11,73.02.99,1.5,2.84,2.19,4.56,1.69l.4-.12c1.92-.56,3.14-2.44,2.89-4.42l-8.22-64.67c-.19-1.49-1.19-2.75-2.58-3.29-20.65-8.03-56.06-17.79-95.09-17.79-91.14,0-154.63,65.44-154.63,148.4s64.06,158.21,154.03,158.21h0c9.29.77,18.6.2,27.83-1.63,1.02-.09,1.81-.14,2.75-.35,8.23-1.83,16.07-4.17,23.89-7.59,8.73-3.82,17-8,24.76-13.68l19.66-14.38,9.54-7.19c-5.88.52-10.86,2.19-16.11,3.78l-8.83,2.68c-1.47.45-3.19.33-4.56,1.47-1.18-.72-10.06,3.17-15.81,3.43l1.68-1.06,9.05-7.14,16.26-14.59,9.06-7.66c3.09-2.61,6.08-4.87,9.47-7.1,16.18-10.62,36.04-18.54,55.07-14.9,7.08,1.35,13.09,4.45,19.29,8.27-2.2-6.21-5.94-10.54-9.52-15.13-3.02-3.75-6.27-6.91-9.96-10.01Z"/>
    </g>
  </g>
</svg>