<?xml version="1.0" encoding="UTF-8"?>
<svg id="Layer_2" data-name="Layer 2" xmlns="http://www.w3.org/2000/svg" viewBox="0 0 183.5 325.79">
  <defs>
    <style>
      .cls-1 {
        fill: #416ba9;
      }
    </style>
  </defs>
  <g id="B4_Chat_Icon.png">
    <g id="fOUNj5.tif">
      <path class="cls-1" d="M182.1,113.92c-9.83,15.46-18.74,12.67-35.74,19.95-1.63.7-2.81,1.43-4.65,1.99l-3.99,1.24-7.69,2.35-13.72,3.35-4.56,1.14-7.5,1.82c-1.83.45-3.49.79-5.33,1.3l-5.82,1.62c-8.74,2.43-17.52,5.91-25.14,10.12-5.64,3.11-10.88,6.55-15.86,11-13.74,12.27-22.64,28.35-26.55,46.2-.93-2.34-.34-4.77-.03-7.38,1.57-13.55,6.8-26.1,14.76-37.38,4.65-6.58,10.19-11.93,16.69-16.87,7.24-5.51,14.66-10.37,22.66-14.85l17.76-10.26.61-.16c.27-.07.42-.43.39-.72h.32c.19,0,.44,0,.65-.09.26-.12.41-.46.37-.78l1.66-.82.63-.13c.28-.06.4-.47.33-.75h.46c.73,0,1.26-.56,1.47-1.27.72-.3,2.12-.95,2.34-1.68,2.04-.42,3.3-1.88,4.96-3.11,17.94-13.37,33.94-31.09,39.81-52.43,3.82-13.87,2.15-28.32-5.08-40.81-2.71-4.69-5.57-8.91-9.12-12.98-4.37-4.86-8.43-9.84-14.86-13.5,3,7.6,5.25,14.87,5.36,22.96.29,21.77-12.37,42.18-27.29,57.99-3.13,3.32-6.22,6.18-9.71,9.09l-10.25,8.52-19.34,15.13-9.68,8.6-1.5,1.65c1.41-6.3,7.46-15.37,6.9-16.81,1.52-1.29,1.73-3.21,2.52-4.75l4.69-9.25c2.79-5.5,5.61-10.67,7.35-17.08l-9.83,9.14-19.77,18.92c-7.81,7.47-14.06,15.8-19.99,24.7-5.32,7.98-9.45,16.19-13.09,24.93-.41.99-.62,1.86-.92,2.97C-.58,178.13-2.51,201.04,3.5,224.8c5.28,20.9,15.85,39.82,30.85,55.87l11.08,10.7c.24.23.72.45.94.49.32.05.67-.82.49-1.23-4.19-9.87-6.62-22.38-5.75-33.09l.48-5.98c.13-1.64-.02-3.28.91-4.7.64,19.27,8.02,39.72,21.62,53.88,12.78,13.31,29.68,22.7,48.91,25.05-13.08-7.56-23.29-16.64-29.93-29.12-2.47-4.63-4.73-9.11-5.02-14.38-1.41-4.23-1.49-8.4-1.11-12.71,1.06-12.14,8.28-22.43,20.15-27.25l3.81-1.75,15.68-3.83c4.71-1.15,9.45-2.44,13.23-4.89,1.15-.13,2.06-1.01,3.19-1.52,13.05-5.88,23.79-22.35,25.07-36.75-9.46,9.23-20.87,13.07-33.74,15.33l-11.39,1.44c-14.78,1.21-30.64,2.2-42.43,11.63,1.84-6.75,4.56-12.66,7.92-18.46l-.38-.32c.67-.08.97-.38,1.37-.98,4.38-6.67,10.34-11.81,17.76-15.49,7.93-3.94,16.62-5.63,25.42-7.17.27-.05.31-.51.22-.6l1.71-.05c.88-.02,2.16.29,2.36-.76,13.81-2.09,28.13-8.31,38.3-17.93,6.93-6.55,11.62-14.1,15.49-22.69,4.73-10.48,2.04-10.36,1.81-21.88,0-.32.21-.95.36-1.11.19-.21-.59-.94-.79-.63Z"/>
    </g>
  </g>
</svg>
